<?xml version="1.0" encoding="utf-8"?>
<!-- Generator: Adobe Illustrator 24.1.1, SVG Export Plug-In . SVG Version: 6.00 Build 0)  -->
<svg version="1.1" id="Layer_1" xmlns="http://www.w3.org/2000/svg" xmlns:xlink="http://www.w3.org/1999/xlink" x="0px" y="0px"
	 viewBox="0 0 16 16" style="enable-background:new 0 0 16 16;" xml:space="preserve">
<style type="text/css">
	.st0{fill:#2A3347;}
</style>
<g>
	<path class="st0" d="M3.37,15.95H1.8c-0.55,0-1-0.45-1-1v-1.56c0-0.55,0.45-1,1-1h1.56c0.55,0,1,0.45,1,1v1.56
		C4.37,15.51,3.92,15.95,3.37,15.95z"/>
	<path class="st0" d="M3.39,11.89H1.82c-0.55,0-1-0.45-1-1V9.33c0-0.55,0.45-1,1-1h1.56c0.55,0,1,0.45,1,1v1.56
		C4.39,11.44,3.94,11.89,3.39,11.89z"/>
	<path class="st0" d="M3.39,7.79H1.82c-0.55,0-1-0.45-1-1V5.23c0-0.55,0.45-1,1-1h1.56c0.55,0,1,0.45,1,1v1.56
		C4.39,7.35,3.94,7.79,3.39,7.79z"/>
	<path class="st0" d="M7.87,15.92H6.31c-0.55,0-1-0.45-1-1v-1.56c0-0.55,0.45-1,1-1h1.56c0.55,0,1,0.45,1,1v1.56
		C8.87,15.48,8.42,15.92,7.87,15.92z"/>
	<path class="st0" d="M8.04,11.83H6.48c-0.55,0-1-0.45-1-1V9.27c0-0.55,0.45-1,1-1h1.56c0.55,0,1,0.45,1,1v1.56
		C9.04,11.39,8.59,11.83,8.04,11.83z"/>
	<path class="st0" d="M6.47,3.48L5.29,2.46c-0.42-0.36-0.46-1-0.09-1.41l1.03-1.17c0.36-0.42,1-0.46,1.41-0.09l1.17,1.03
		c0.42,0.36,0.46,1,0.09,1.41L7.88,3.39C7.51,3.81,6.88,3.85,6.47,3.48z"/>
	<path class="st0" d="M7.83,5.41l0.34-1.52c0.12-0.54,0.65-0.88,1.19-0.76l1.52,0.34c0.54,0.12,0.88,0.65,0.76,1.19L11.3,6.18
		c-0.12,0.54-0.65,0.88-1.19,0.76L8.58,6.6C8.05,6.48,7.71,5.95,7.83,5.41z"/>
	<path class="st0" d="M11.2,10.72L9.99,9.73C9.57,9.38,9.5,8.75,9.86,8.32l0.99-1.21c0.35-0.43,0.98-0.49,1.41-0.14l1.21,0.99
		c0.43,0.35,0.49,0.98,0.14,1.41l-0.99,1.21C12.25,11.01,11.62,11.07,11.2,10.72z"/>
	<path class="st0" d="M12.46,15.95h-1.56c-0.55,0-1-0.45-1-1v-1.56c0-0.55,0.45-1,1-1h1.56c0.55,0,1,0.45,1,1v1.56
		C13.46,15.51,13.01,15.95,12.46,15.95z"/>
</g>
</svg>
