<svg width="20" height="21" viewBox="0 0 20 21" fill="none" xmlns="http://www.w3.org/2000/svg">
<path id="Union" fill-rule="evenodd" clip-rule="evenodd" d="M9.95469 2.47618H6.44126V0L-2.86102e-05 6.14776H9.95469C13.3408 6.14776 16.1032 8.79472 16.1032 12.0394V12.5395H19.9349V12.0394C19.9349 6.76986 15.4667 2.47618 9.95469 2.47618ZM20.0018 14.1116H10.0471C6.66098 14.1116 3.89861 11.4646 3.89861 8.21998V7.71986H0.0669384V8.21998C0.0669384 13.4895 4.54783 17.7832 10.0471 17.7832H13.5605V20.2593L20.0018 14.1116ZM12.6077 10.0946C12.6077 11.5067 11.4171 12.6516 9.94845 12.6516C8.4798 12.6516 7.28922 11.5067 7.28922 10.0946C7.28922 8.68237 8.4798 7.53756 9.94845 7.53756C11.4171 7.53756 12.6077 8.68237 12.6077 10.0946Z" fill="#F3F3F3"/>
</svg>
