<?xml version="1.0" encoding="utf-8"?>
<!-- Generator: Adobe Illustrator 24.1.1, SVG Export Plug-In . SVG Version: 6.00 Build 0)  -->
<svg version="1.1" id="Layer_1" xmlns="http://www.w3.org/2000/svg" xmlns:xlink="http://www.w3.org/1999/xlink" x="0px" y="0px"
	 viewBox="0 0 16 16" style="enable-background:new 0 0 16 16;" xml:space="preserve" fill="#2A3347">
<g>
	<path d="M15.24,7.82h-1.91c-0.11-0.7-0.34-1.36-0.64-1.95l-0.45,0.45c-0.05,0.05-0.1,0.09-0.16,0.13c0.06-0.03,0.11-0.08,0.16-0.13
		l0.45-0.45v0l1.35-1.35c0.33-0.33,0.33-0.88,0-1.21h0c-0.33-0.33-0.88-0.33-1.21,0l-1.11,1.11c-0.05-0.06-0.11-0.12-0.16-0.18
		L10.32,5.4c0.21,0.21,0.41,0.46,0.58,0.73c0,0,0,0,0,0c0.01,0.02,0.02,0.05,0.05,0.07c0,0,0,0,0,0c0.5,0.83,0.81,1.9,0.81,3.05
		c0,1.07-0.26,2.06-0.71,2.86h0c-0.5,0.91-1.23,1.59-2.09,1.85V6.68L7.24,8.3v5.65c-0.86-0.26-1.6-0.94-2.1-1.86
		c-0.02-0.06-0.05-0.1-0.08-0.15c0,0,0,0,0,0c-0.18-0.36-0.33-0.75-0.43-1.17l-1.37,1.3c0.02,0.06,0.04,0.11,0.07,0.17L2.15,13.4
		c-0.33,0.33-0.33,0.87,0,1.21c0.16,0.17,0.39,0.25,0.61,0.25s0.43-0.08,0.61-0.25l0.86-0.85c0.97,1.27,2.35,2.05,3.87,2.05v0
		c1.52,0,2.9-0.78,3.87-2.05l0,0v0l0.86,0.85c0.17,0.17,0.39,0.25,0.61,0.25c0.22,0,0.45-0.08,0.61-0.25c0.33-0.34,0.33-0.88,0-1.21
		l-1.17-1.17v0l-0.35-0.34c-0.16-0.19-0.4-0.32-0.67-0.32c-0.06,0-0.11,0.01-0.16,0.02c0.05-0.01,0.11-0.02,0.16-0.02
		c0.27,0,0.51,0.13,0.67,0.32l0.35,0.34c0.34-0.82,0.56-1.74,0.58-2.71h1.78c0.47,0,0.86-0.39,0.86-0.86
		C16.1,8.2,15.71,7.82,15.24,7.82z M11.16,6.41c0.06,0.04,0.13,0.08,0.2,0.1C11.29,6.49,11.22,6.45,11.16,6.41z M8.1,14.1
		c-0.3,0-0.58-0.05-0.86-0.15v0C7.51,14.06,7.8,14.1,8.1,14.1c0.06,0,0.12,0,0.17-0.01C8.21,14.1,8.16,14.1,8.1,14.1z M8.95,13.95
		c-0.08,0.03-0.16,0.05-0.23,0.07C8.8,14.01,8.88,13.98,8.95,13.95L8.95,13.95z M11.06,12.1c-0.05,0.1-0.07,0.22-0.07,0.33
		c0,0,0,0,0,0C10.99,12.32,11.01,12.2,11.06,12.1L11.06,12.1L11.06,12.1z M11.47,11.66c0.05-0.02,0.09-0.04,0.15-0.05
		C11.57,11.62,11.52,11.64,11.47,11.66z"/>
	<path d="M2.89,10.83l1.56-1.47c0-0.04,0-0.08,0-0.12c0-1.15,0.31-2.22,0.81-3.05c0,0,0,0,0,0C5.27,6.17,5.29,6.15,5.3,6.12
		c0.5-0.78,1.18-1.35,1.94-1.59v2.18L8.95,5.1V4.54C9.1,4.58,9.24,4.64,9.37,4.7l2.13-2.01c0.01-0.1,0.02-0.2,0.02-0.31
		c0-1.44-1.51-2.57-3.43-2.57S4.67,0.95,4.67,2.39c0,0.49,0.17,0.96,0.49,1.35C4.92,3.94,4.68,4.16,4.47,4.41L5.16,5.1L4.47,4.41
		L3.37,3.3h0c-0.33-0.33-0.88-0.33-1.21,0c-0.33,0.33-0.33,0.88,0,1.21L3.5,5.86c-0.3,0.59-0.53,1.26-0.64,1.95H0.95
		C0.49,7.82,0.1,8.2,0.1,8.67c0,0.47,0.39,0.86,0.86,0.86h1.78C2.75,9.98,2.8,10.41,2.89,10.83z M10.37,3.29
		c-0.07-0.04-0.13-0.07-0.2-0.11C10.24,3.22,10.31,3.25,10.37,3.29z M8.1,1.53c1.05,0,1.71,0.5,1.71,0.86
		c0,0.19-0.19,0.37-0.31,0.46C9.48,2.86,9.47,2.87,9.45,2.89C9.01,2.74,8.57,2.67,8.1,2.67c-0.47,0-0.91,0.07-1.35,0.22
		C6.82,2.95,6.88,3.02,6.92,3.1c-0.05-0.08-0.1-0.15-0.17-0.21C6.7,2.91,6.64,2.92,6.59,2.94C6.64,2.92,6.7,2.91,6.75,2.89
		C6.74,2.88,6.71,2.86,6.69,2.84C6.58,2.75,6.38,2.58,6.38,2.39C6.38,2.03,7.05,1.53,8.1,1.53z"/>
</g>
</svg>
