<?xml version="1.0" encoding="utf-8"?>
<!-- Generator: Adobe Illustrator 24.1.1, SVG Export Plug-In . SVG Version: 6.00 Build 0)  -->
<svg version="1.1" id="Layer_1" xmlns="http://www.w3.org/2000/svg" xmlns:xlink="http://www.w3.org/1999/xlink" x="0px" y="0px"
	 viewBox="0 0 16 16" style="enable-background:new 0 0 16 16;" xml:space="preserve" fill="#2A3347">
<path d="M12.85,2.86l-0.46-0.32c-0.69-0.49-1.65-0.32-2.14,0.38L5.32,9.96c-0.03,0.05-0.05,0.1-0.06,0.16L4.97,13.1
	c-0.01,0.12,0.04,0.24,0.14,0.31c0.1,0.07,0.23,0.08,0.34,0.03l2.7-1.29c0.05-0.03,0.1-0.06,0.13-0.11L13.23,5
	C13.71,4.3,13.54,3.35,12.85,2.86z M10.81,3.31c0.27-0.39,0.8-0.48,1.19-0.21l0.46,0.32c0.39,0.27,0.48,0.8,0.21,1.19l-0.29,0.42
	l-1.86-1.3L10.81,3.31z M5.71,12.57l0.18-1.83l1.49,1.04L5.71,12.57z M6.09,10.05L7.95,7.4L9.8,8.71l-1.85,2.65L6.09,10.05z"/>
<rect x="6.93" y="6.66" transform="matrix(0.7968 0.6042 -0.6042 0.7968 7.0984 -3.1814)" width="2.69" height="4.61"/>
<rect x="9.07" y="3.48" transform="matrix(0.8201 0.5722 -0.5722 0.8201 5.1839 -4.9192)" width="2.69" height="4.61"/>
</svg>
