<?xml version="1.0" encoding="utf-8"?>
<!-- Generator: Adobe Illustrator 24.1.1, SVG Export Plug-In . SVG Version: 6.00 Build 0)  -->
<svg version="1.1" id="Layer_1" xmlns="http://www.w3.org/2000/svg" xmlns:xlink="http://www.w3.org/1999/xlink" x="0px" y="0px"
	 viewBox="0 0 16 16" style="enable-background:new 0 0 16 16;" xml:space="preserve">
<style type="text/css">
	.st0{fill:#2A3347;}
</style>
<g>
	<path class="st0" d="M11.08,16.02H4.61c-1.35,0-2.47-1.09-2.65-2.59l0-10.53c0.18-1.2,1.22-2.36,2.65-2.36h5.71l3.26,4.34v8.64
		C13.58,14.9,12.46,16.02,11.08,16.02z M4.61,1.54c-0.88,0-1.55,0.75-1.66,1.44l0.01,10.39c0.12,0.93,0.81,1.65,1.65,1.65h6.47
		c0.83,0,1.5-0.67,1.5-1.5v-8.3L9.82,1.54H4.61z"/>
	<path class="st0" d="M10.16,0.81L8.01,0.79L7.47,3.22C7.26,4.19,7.94,5.19,9,5.46l4.39,1.13l0.02-1.52L10.16,0.81z"/>
</g>
</svg>
