<?xml version="1.0" encoding="utf-8"?>
<!-- Generator: Adobe Illustrator 24.1.1, SVG Export Plug-In . SVG Version: 6.00 Build 0)  -->
<svg version="1.1" id="Layer_1" xmlns="http://www.w3.org/2000/svg" xmlns:xlink="http://www.w3.org/1999/xlink" x="0px" y="0px"
	 viewBox="0 0 16 16" style="enable-background:new 0 0 16 16;" xml:space="preserve" fill="#2A3347">
<g>
	<path d="M7.46,1.26C4,1.26,1.2,4.06,1.2,7.52s2.8,6.26,6.26,6.26c3.46,0,6.26-2.8,6.26-6.26S10.91,1.26,7.46,1.26z M8.41,11.58
		c0,0.29-0.09,0.53-0.27,0.71c-0.18,0.19-0.47,0.28-0.87,0.28c-0.39,0-0.68-0.09-0.85-0.28c-0.18-0.19-0.27-0.42-0.27-0.71V11.3
		c0-0.29,0.09-0.53,0.27-0.71c0.18-0.19,0.46-0.28,0.85-0.28c0.4,0,0.69,0.09,0.87,0.28c0.18,0.19,0.27,0.42,0.27,0.71V11.58z
		 M10.39,6.38c-0.14,0.32-0.32,0.6-0.55,0.84c-0.23,0.24-0.5,0.43-0.8,0.57c-0.3,0.14-0.61,0.24-0.92,0.3
		c0.01,0.33,0.01,0.66,0.02,0.99C7.56,9.3,6.99,9.52,6.41,9.74c0-0.89,0-1.78,0-2.68c0.75-0.03,1.31-0.17,1.7-0.43
		c0.39-0.26,0.58-0.66,0.58-1.2v-0.2c0-0.39-0.12-0.7-0.35-0.91C8.11,4.12,7.8,4.01,7.41,4.01c-0.11,0-0.64,0-1.01,0.37
		c-0.4,0.39-0.27,0.83-0.54,0.96C5.67,5.43,5.32,5.35,4.6,4.65C4.59,4.48,4.59,4.19,4.72,3.88C4.87,3.54,5.1,3.36,5.33,3.16
		c0.25-0.21,0.55-0.38,0.91-0.5C6.6,2.53,7.01,2.47,7.48,2.47c0.48,0,0.91,0.07,1.29,0.2C9.15,2.81,9.47,3,9.74,3.25
		c0.27,0.25,0.48,0.54,0.63,0.89s0.22,0.73,0.22,1.15C10.6,5.69,10.53,6.06,10.39,6.38z"/>
	<polygon points="10.56,9.99 9.23,10.74 9.23,12.77 6.92,12.77 7.49,13.77 12.04,13.77 13.61,13.73 	"/>
</g>
</svg>
