<svg width="14" height="14" viewBox="0 0 14 14" fill="none" xmlns="http://www.w3.org/2000/svg">
<g id="interface-id-iris-scan--identification-retina-secure-security-iris-scan-eye-brackets" clip-path="url(#clip0_1409_3270)">
<g id="Group">
<path id="Vector" d="M13.5 10.5V12.5C13.5 12.7652 13.3946 13.0196 13.2071 13.2071C13.0196 13.3946 12.7652 13.5 12.5 13.5H10.5" stroke="#E8E8E8" stroke-linecap="round" stroke-linejoin="round"/>
<path id="Vector_2" d="M10.5 0.5H12.5C12.7652 0.5 13.0196 0.605357 13.2071 0.792893C13.3946 0.98043 13.5 1.23478 13.5 1.5V3.5" stroke="#E8E8E8" stroke-linecap="round" stroke-linejoin="round"/>
<path id="Vector_3" d="M0.5 3.5V1.5C0.5 1.23478 0.605357 0.98043 0.792893 0.792893C0.98043 0.605357 1.23478 0.5 1.5 0.5H3.5" stroke="#E8E8E8" stroke-linecap="round" stroke-linejoin="round"/>
<path id="Vector_4" d="M3.5 13.5H1.5C1.23478 13.5 0.98043 13.3946 0.792893 13.2071C0.605357 13.0196 0.5 12.7652 0.5 12.5V10.5" stroke="#E8E8E8" stroke-linecap="round" stroke-linejoin="round"/>
<path id="Vector_5" d="M11.5 7C11.5 7 9.5 10 7 10C4.5 10 2.5 7 2.5 7C2.5 7 4.5 4 7 4C9.5 4 11.5 7 11.5 7Z" stroke="#E8E8E8" stroke-linecap="round" stroke-linejoin="round"/>
<path id="Vector_6" d="M6.95402 8.08899C7.59835 8.08899 8.12069 7.56666 8.12069 6.92233C8.12069 6.278 7.59835 5.75566 6.95402 5.75566C6.30969 5.75566 5.78735 6.278 5.78735 6.92233C5.78735 7.56666 6.30969 8.08899 6.95402 8.08899Z" fill="#E8E8E8"/>
</g>
</g>
<defs>
<clipPath id="clip0_1409_3270">
<rect width="14" height="14" fill="white"/>
</clipPath>
</defs>
</svg>
