<?xml version="1.0" encoding="utf-8"?>
<!-- Generator: Adobe Illustrator 24.1.1, SVG Export Plug-In . SVG Version: 6.00 Build 0)  -->
<svg version="1.1" id="Layer_1" xmlns="http://www.w3.org/2000/svg" xmlns:xlink="http://www.w3.org/1999/xlink" x="0px" y="0px"
	 viewBox="0 0 16 16" style="enable-background:new 0 0 16 16;" xml:space="preserve">
<style type="text/css">
	.st0{fill:#8A8A95;stroke:#000000;stroke-width:0;stroke-miterlimit:10;}
</style>
<path class="st0" d="M-3.6-4.3"/>
<g>
	<path class="st0" d="M5.8,2.7"/>
	<path class="st0" d="M14.4,5.3c0-0.3-0.1-0.5-0.1-0.6c-0.3-1-0.9-1.4-1-1.4H6.6C5.8,4,4.9,4.6,4,5.3H14.4z"/>
</g>
<path class="st0" d="M13.9,5.9H2.1c-0.5,0-1,0.5-1,1v6c0,0.5,0.5,1,1,1h11.8c0.5,0,1-0.5,1-1v-6C14.9,6.4,14.5,5.9,13.9,5.9z M14.3,11.1
	c0,0.2-0.2,0.4-0.4,0.4h-1.5V13c0,0.2-0.2,0.4-0.4,0.4h-0.4c-0.2,0-0.4-0.2-0.4-0.4v-1.6H9.7c-0.2,0-0.4-0.2-0.4-0.4v-0.4
	c0-0.2,0.2-0.4,0.4-0.4h1.6V8.7c0-0.2,0.2-0.4,0.4-0.4h0.4c0.2,0,0.4,0.2,0.4,0.4v1.6H14c0.2,0,0.4,0.2,0.4,0.4V11.1z"/>
</svg>
