<?xml version="1.0" encoding="utf-8"?>
<!-- Generator: Adobe Illustrator 24.1.1, SVG Export Plug-In . SVG Version: 6.00 Build 0)  -->
<svg version="1.1" id="Layer_1" xmlns="http://www.w3.org/2000/svg" xmlns:xlink="http://www.w3.org/1999/xlink" x="0px" y="0px"
	 viewBox="0 0 24 24" style="enable-background:new 0 0 24 24;" xml:space="preserve">
<style type="text/css">
	.st0{fill:black;}
	.st1{fill:#2A3347;}
</style>
<path class="st1" d="M11.71,7.98c2.66,0,5.16,1.3,6.77,3.49c-1.61,2.2-4.11,3.49-6.77,3.49c-0.2,0-0.41-0.01-0.6-0.02
	C7.76,14.69,5.73,12.45,5,11.47c0.72-0.97,2.76-3.22,6.11-3.47C11.31,7.99,11.51,7.98,11.71,7.98 M11.71,7.36
	c-0.22,0-0.44,0.01-0.65,0.02c-4.27,0.32-6.55,3.69-6.82,4.09c0.27,0.41,2.55,3.77,6.82,4.09c0.22,0.02,0.44,0.02,0.65,0.02
	c2.99,0,5.83-1.55,7.53-4.12C17.54,8.9,14.7,7.36,11.71,7.36L11.71,7.36z"/>
<path class="st1" d="M11.71,15.84c-0.23,0-0.45-0.01-0.68-0.03c-4.23-0.32-6.58-3.56-7-4.2l-0.09-0.14l0.09-0.14c0.43-0.65,2.77-3.88,7.01-4.2
	c0.22-0.02,0.45-0.03,0.67-0.03c3.09,0,5.98,1.58,7.74,4.23l0.09,0.14l-0.09,0.14C17.69,14.26,14.8,15.84,11.71,15.84z M4.54,11.47
	c0.59,0.84,2.78,3.56,6.53,3.84c3.1,0.25,6.07-1.24,7.86-3.84c-1.67-2.42-4.36-3.87-7.23-3.87c-0.21,0-0.42,0.01-0.63,0.02
	C7.32,7.92,5.13,10.64,4.54,11.47z M11.71,15.22c-0.21,0-0.42-0.01-0.63-0.03c-3.45-0.26-5.54-2.58-6.28-3.57l-0.11-0.15l0.11-0.15
	c0.73-0.99,2.81-3.31,6.29-3.57c0.2-0.02,0.42-0.03,0.62-0.03c2.72,0,5.33,1.34,6.97,3.6l0.11,0.15l-0.11,0.15
	C17.04,13.87,14.43,15.22,11.71,15.22z M5.32,11.47c0.79,1,2.72,2.99,5.81,3.22c0.2,0.02,0.39,0.02,0.59,0.02
	c2.5,0,4.9-1.21,6.46-3.24c-1.56-2.03-3.96-3.24-6.46-3.24c-0.19,0-0.39,0.01-0.58,0.02C8.02,8.49,6.1,10.48,5.32,11.47z"/>
<circle class="st0" cx="11.97" cy="11.47" r="2.27"/>
<g>
	<path class="st1" d="M5.4,19.48h-2V4.01h2V1.74h-2c-1.25,0-2.26,1.01-2.26,2.26v15.48c0,1.25,1.01,2.26,2.26,2.26h2V19.48z"/>
	<path class="st1" d="M20.35,1.74H17.7v2.26h2.66l0,15.48H17.7v2.26h2.66c1.25,0,2.26-1.02,2.26-2.26V4.01C22.62,2.76,21.6,1.74,20.35,1.74z"/>
</g>
</svg>
