<svg width="718" height="731" viewBox="0 0 718 731" fill="none" xmlns="http://www.w3.org/2000/svg">
<path d="M474.682 730.569V637.912H361.122C173.865 637.912 21.8337 485.491 21.8337 298.787V277.013H159.959V298.787C159.959 409.975 250.344 500.316 361.586 500.316H717.561L474.682 730.569ZM31.1039 285.815V298.324C31.1039 480.395 179.427 628.183 361.122 628.183H483.952V708.794L693.922 509.118H361.122C244.782 509.118 150.226 414.608 150.226 298.324V285.815H31.1039Z" fill="#979797"/>
<path d="M698.093 454.451H559.968V432.676C559.968 321.488 469.583 231.147 358.341 231.147H0.97583L244.782 0.431396V93.0884H358.341C545.599 93.0884 697.63 245.509 697.63 432.213V454.451H698.093ZM569.238 445.185H688.823V432.676C688.823 250.605 540.5 102.817 358.805 102.817H235.975V21.7425L24.6148 221.418H358.805C475.146 221.418 569.701 315.928 569.701 432.213V445.185H569.238Z" fill="#979797"/>
<path d="M360.195 461.4C307.355 461.4 264.249 418.314 264.249 365.5C264.249 312.686 307.355 269.6 360.195 269.6C413.035 269.6 456.142 312.686 456.142 365.5C456.142 418.314 412.572 461.4 360.195 461.4ZM360.195 278.866C312.454 278.866 273.519 317.782 273.519 365.5C273.519 413.218 312.454 452.134 360.195 452.134C407.937 452.134 446.871 413.218 446.871 365.5C446.871 317.782 407.473 278.866 360.195 278.866Z" fill="#979797"/>
</svg>
