<svg width="42" height="45" viewBox="0 0 42 45" fill="none" xmlns="http://www.w3.org/2000/svg">
<path d="M41.9999 31.6316H21.097C13.9868 31.6316 8.18638 26.0735 8.18638 19.2603V18.2102H0.140625V19.2603C0.140625 30.3253 9.54962 39.3411 21.097 39.3411H28.4745V44.5406L41.9999 31.6316Z" fill="white"/>
<path d="M20.9029 5.19949H13.5254V0L0 12.9091H20.9029C28.0131 12.9091 33.8136 18.4672 33.8136 25.2803V26.3304H41.8593V25.2803C41.8593 14.2154 32.4771 5.19949 20.9029 5.19949Z" fill="white"/>
<path d="M21.0748 27.3607C23.9424 27.3607 26.2671 24.9765 26.2671 22.0353C26.2671 19.0942 23.9424 16.71 21.0748 16.71C18.2072 16.71 15.8826 19.0942 15.8826 22.0353C15.8826 24.9765 18.2072 27.3607 21.0748 27.3607Z" fill="white"/>
</svg>
