<?xml version="1.0" encoding="UTF-8"?>
<svg xmlns="http://www.w3.org/2000/svg" xmlns:xlink="http://www.w3.org/1999/xlink" width="32px" height="32px" viewBox="0 0 32 32" version="1.1">
<g id="surface1">
<path style=" stroke:none;fill-rule:nonzero;fill:rgb(100%,100%,100%);fill-opacity:1;" d="M 15.984375 20.359375 C 15.34375 20.359375 14.8125 19.859375 14.789062 19.21875 L 13.6875 8.585938 C 13.585938 7.25 14.640625 6.117188 15.984375 6.117188 C 17.320312 6.117188 18.375 7.25 18.28125 8.585938 L 17.171875 19.21875 C 17.148438 19.859375 16.625 20.359375 15.984375 20.359375 Z M 15.984375 20.359375 "/>
<path style=" stroke:none;fill-rule:nonzero;fill:rgb(100%,100%,100%);fill-opacity:1;" d="M 17.882812 23.945312 C 17.882812 25 17.03125 25.851562 15.984375 25.851562 C 14.929688 25.851562 14.078125 25 14.078125 23.945312 C 14.078125 22.890625 14.929688 22.039062 15.984375 22.039062 C 17.03125 22.039062 17.882812 22.890625 17.882812 23.945312 Z M 17.882812 23.945312 "/>
</g>
</svg>
