<?xml version="1.0" encoding="UTF-8"?>
<svg xmlns="http://www.w3.org/2000/svg" xmlns:xlink="http://www.w3.org/1999/xlink" width="10px" height="10px" viewBox="0 0 10 10" version="1.1">
<g id="surface1">
<path style=" stroke:none;fill-rule:evenodd;fill:rgb(100%,100%,100%);fill-opacity:1;" d="M 7.765625 1.179688 C 8.492188 1.179688 9.078125 1.765625 9.078125 2.484375 C 9.078125 3.203125 8.492188 3.785156 7.765625 3.785156 C 7.039062 3.785156 6.453125 3.203125 6.453125 2.484375 C 6.453125 1.765625 7.039062 1.179688 7.765625 1.179688 Z M 8.953125 4.238281 C 8.367188 4.238281 7.886719 4.710938 7.886719 5.296875 C 7.886719 5.882812 8.367188 6.359375 8.953125 6.359375 C 9.546875 6.359375 10.027344 5.882812 10.027344 5.296875 C 10.027344 4.710938 9.546875 4.238281 8.953125 4.238281 Z M 7.714844 7.308594 C 7.304688 7.308594 6.96875 7.640625 6.96875 8.050781 C 6.96875 8.460938 7.304688 8.792969 7.714844 8.792969 C 8.128906 8.792969 8.460938 8.460938 8.460938 8.050781 C 8.460938 7.640625 8.128906 7.308594 7.714844 7.308594 Z M 4.859375 8.507812 C 4.445312 8.507812 4.109375 8.839844 4.109375 9.246094 C 4.109375 9.65625 4.445312 9.988281 4.859375 9.988281 C 5.269531 9.988281 5.605469 9.65625 5.605469 9.246094 C 5.605469 8.839844 5.269531 8.507812 4.859375 8.507812 Z M 1.9375 7.386719 C 1.554688 7.386719 1.238281 7.699219 1.238281 8.082031 C 1.238281 8.464844 1.554688 8.773438 1.9375 8.773438 C 2.324219 8.773438 2.640625 8.464844 2.640625 8.082031 C 2.640625 7.699219 2.324219 7.386719 1.9375 7.386719 Z M 0.746094 4.460938 C 0.335938 4.460938 0 4.792969 0 5.199219 C 0 5.609375 0.335938 5.941406 0.746094 5.941406 C 1.15625 5.941406 1.492188 5.609375 1.492188 5.199219 C 1.492188 4.792969 1.15625 4.460938 0.746094 4.460938 Z M 1.9375 1.382812 C 1.417969 1.382812 0.996094 1.804688 0.996094 2.320312 C 0.996094 2.835938 1.417969 3.253906 1.9375 3.253906 C 2.457031 3.253906 2.882812 2.835938 2.882812 2.320312 C 2.882812 1.804688 2.457031 1.382812 1.9375 1.382812 Z M 4.863281 0 C 4.234375 0 3.726562 0.503906 3.726562 1.125 C 3.726562 1.746094 4.234375 2.253906 4.863281 2.253906 C 5.492188 2.253906 6 1.746094 6 1.125 C 6 0.503906 5.492188 0 4.863281 0 Z M 4.863281 0 "/>
</g>
</svg>
