<?xml version="1.0" encoding="UTF-8"?>
<svg xmlns="http://www.w3.org/2000/svg" xmlns:xlink="http://www.w3.org/1999/xlink" width="16px" height="16px" viewBox="0 0 16 16" version="1.1">
<g id="surface1">
<path style=" stroke:none;fill-rule:nonzero;fill:rgb(100%,100%,100%);fill-opacity:1;" d="M 13.382812 9.398438 C 13.007812 10.800781 12.105469 11.976562 10.847656 12.703125 C 9.589844 13.429688 8.121094 13.625 6.71875 13.246094 C 3.820312 12.46875 2.09375 9.480469 2.867188 6.582031 C 3.644531 3.683594 6.636719 1.957031 9.535156 2.734375 C 10.273438 2.929688 10.953125 3.28125 11.539062 3.753906 L 10.074219 5.21875 L 14.753906 5.21875 L 14.753906 0.539062 L 13.285156 2.003906 C 12.390625 1.230469 11.332031 0.667969 10.171875 0.359375 C 5.960938 -0.769531 1.621094 1.738281 0.496094 5.945312 C -0.632812 10.152344 1.875 14.492188 6.082031 15.621094 C 6.761719 15.804688 7.453125 15.894531 8.140625 15.894531 C 9.507812 15.894531 10.859375 15.535156 12.078125 14.832031 C 13.902344 13.777344 15.210938 12.074219 15.757812 10.035156 Z M 13.382812 9.398438 "/>
</g>
</svg>
