<?xml version="1.0" encoding="UTF-8"?>
<svg xmlns="http://www.w3.org/2000/svg" xmlns:xlink="http://www.w3.org/1999/xlink" width="16px" height="16px" viewBox="0 0 16 16" version="1.1">
<g id="surface1">
<path style=" stroke:none;fill-rule:evenodd;fill:rgb(100%,100%,100%);fill-opacity:1;" d="M 12.425781 1.890625 C 13.585938 1.890625 14.527344 2.824219 14.527344 3.972656 C 14.527344 5.125 13.585938 6.058594 12.425781 6.058594 C 11.265625 6.058594 10.328125 5.125 10.328125 3.972656 C 10.328125 2.824219 11.265625 1.890625 12.425781 1.890625 Z M 14.328125 6.78125 C 13.386719 6.78125 12.617188 7.539062 12.617188 8.476562 C 12.617188 9.414062 13.386719 10.175781 14.328125 10.175781 C 15.273438 10.175781 16.042969 9.414062 16.042969 8.476562 C 16.042969 7.539062 15.273438 6.78125 14.328125 6.78125 Z M 12.34375 11.695312 C 11.6875 11.695312 11.148438 12.226562 11.148438 12.878906 C 11.148438 13.535156 11.6875 14.066406 12.34375 14.066406 C 13.003906 14.066406 13.539062 13.535156 13.539062 12.878906 C 13.539062 12.226562 13.003906 11.695312 12.34375 11.695312 Z M 7.773438 13.613281 C 7.113281 13.613281 6.578125 14.144531 6.578125 14.796875 C 6.578125 15.453125 7.113281 15.984375 7.773438 15.984375 C 8.433594 15.984375 8.96875 15.453125 8.96875 14.796875 C 8.96875 14.144531 8.433594 13.613281 7.773438 13.613281 Z M 3.101562 11.820312 C 2.484375 11.820312 1.980469 12.316406 1.980469 12.929688 C 1.980469 13.542969 2.484375 14.039062 3.101562 14.039062 C 3.71875 14.039062 4.222656 13.542969 4.222656 12.929688 C 4.222656 12.316406 3.71875 11.820312 3.101562 11.820312 Z M 1.191406 7.136719 C 0.535156 7.136719 0 7.667969 0 8.320312 C 0 8.972656 0.535156 9.503906 1.191406 9.503906 C 1.851562 9.503906 2.386719 8.972656 2.386719 8.320312 C 2.386719 7.667969 1.851562 7.136719 1.191406 7.136719 Z M 3.101562 2.214844 C 2.269531 2.214844 1.59375 2.886719 1.59375 3.710938 C 1.59375 4.539062 2.269531 5.207031 3.101562 5.207031 C 3.933594 5.207031 4.609375 4.539062 4.609375 3.710938 C 4.609375 2.886719 3.933594 2.214844 3.101562 2.214844 Z M 7.78125 0 C 6.777344 0 5.964844 0.808594 5.964844 1.800781 C 5.964844 2.796875 6.777344 3.605469 7.78125 3.605469 C 8.785156 3.605469 9.597656 2.796875 9.597656 1.800781 C 9.597656 0.808594 8.785156 0 7.78125 0 Z M 7.78125 0 "/>
</g>
</svg>
