<?xml version="1.0" encoding="UTF-8"?>
<svg xmlns="http://www.w3.org/2000/svg" xmlns:xlink="http://www.w3.org/1999/xlink" width="20px" height="20px" viewBox="0 0 20 20" version="1.1">
<g id="surface1">
<path style=" stroke:none;fill-rule:evenodd;fill:rgb(100%,100%,100%);fill-opacity:1;" d="M 15.53125 2.359375 C 16.984375 2.359375 18.15625 3.53125 18.15625 4.96875 C 18.15625 6.40625 16.984375 7.570312 15.53125 7.570312 C 14.078125 7.570312 12.90625 6.40625 12.90625 4.96875 C 12.90625 3.53125 14.078125 2.359375 15.53125 2.359375 Z M 17.90625 8.476562 C 16.734375 8.476562 15.773438 9.421875 15.773438 10.59375 C 15.773438 11.765625 16.734375 12.71875 17.90625 12.71875 C 19.09375 12.71875 20.054688 11.765625 20.054688 10.59375 C 20.054688 9.421875 19.09375 8.476562 17.90625 8.476562 Z M 15.429688 14.617188 C 14.609375 14.617188 13.9375 15.28125 13.9375 16.101562 C 13.9375 16.921875 14.609375 17.585938 15.429688 17.585938 C 16.257812 17.585938 16.921875 16.921875 16.921875 16.101562 C 16.921875 15.28125 16.257812 14.617188 15.429688 14.617188 Z M 9.71875 17.015625 C 8.890625 17.015625 8.21875 17.679688 8.21875 18.492188 C 8.21875 19.3125 8.890625 19.976562 9.71875 19.976562 C 10.539062 19.976562 11.210938 19.3125 11.210938 18.492188 C 11.210938 17.679688 10.539062 17.015625 9.71875 17.015625 Z M 3.875 14.773438 C 3.109375 14.773438 2.476562 15.398438 2.476562 16.164062 C 2.476562 16.929688 3.109375 17.546875 3.875 17.546875 C 4.648438 17.546875 5.28125 16.929688 5.28125 16.164062 C 5.28125 15.398438 4.648438 14.773438 3.875 14.773438 Z M 1.492188 8.921875 C 0.671875 8.921875 0 9.585938 0 10.398438 C 0 11.21875 0.671875 11.882812 1.492188 11.882812 C 2.3125 11.882812 2.984375 11.21875 2.984375 10.398438 C 2.984375 9.585938 2.3125 8.921875 1.492188 8.921875 Z M 3.875 2.765625 C 2.835938 2.765625 1.992188 3.609375 1.992188 4.640625 C 1.992188 5.671875 2.835938 6.507812 3.875 6.507812 C 4.914062 6.507812 5.765625 5.671875 5.765625 4.640625 C 5.765625 3.609375 4.914062 2.765625 3.875 2.765625 Z M 9.726562 0 C 8.46875 0 7.453125 1.007812 7.453125 2.25 C 7.453125 3.492188 8.46875 4.507812 9.726562 4.507812 C 10.984375 4.507812 12 3.492188 12 2.25 C 12 1.007812 10.984375 0 9.726562 0 Z M 9.726562 0 "/>
</g>
</svg>
