<svg width="14" height="2" viewBox="0 0 14 2" fill="none" xmlns="http://www.w3.org/2000/svg">
<path id="Union" fill-rule="evenodd" clip-rule="evenodd" d="M0 1C0 0.447716 0.447715 0 1 0C1.55228 0 2 0.447716 2 1C2 1.55229 1.55228 2 1 2C0.447715 2 0 1.55229 0 1ZM7 0C6.44771 0 6 0.447716 6 1C6 1.55229 6.44771 2 7 2C7.55228 2 8 1.55229 8 1C8 0.447716 7.55228 0 7 0ZM13 0C12.4477 0 12 0.447715 12 1C12 1.55228 12.4477 2 13 2C13.5523 2 14 1.55228 14 1C14 0.447715 13.5523 0 13 0Z" fill="#DC2626"/>
</svg>
