<?xml version="1.0" encoding="utf-8"?>
<!-- Generator: Adobe Illustrator 24.0.1, SVG Export Plug-In . SVG Version: 6.00 Build 0)  -->
<svg version="1.1" id="Layer_1" xmlns="http://www.w3.org/2000/svg" xmlns:xlink="http://www.w3.org/1999/xlink" x="0px" y="0px"
	 viewBox="0 0 16 16" style="enable-background:new 0 0 16 16;" xml:space="preserve" fill="#707070">
<path d="M10.9,8l4.5-4.5c0.8-0.8,0.8-2.1,0-2.9c-0.8-0.8-2.1-0.8-2.9,0L8,5.1L3.5,0.6c-0.8-0.8-2.1-0.8-2.9,0
	c-0.8,0.8-0.8,2.1,0,2.9L5.1,8l-4.5,4.5c-0.8,0.8-0.8,2.1,0,2.9C1,15.8,1.5,16,2.1,16c0.5,0,1.1-0.2,1.5-0.6L8,10.9l4.5,4.5
	c0.4,0.4,0.9,0.6,1.5,0.6c0.5,0,1.1-0.2,1.5-0.6c0.8-0.8,0.8-2.1,0-2.9L10.9,8z"/>
</svg>
