<?xml version="1.0" encoding="utf-8"?>
<!-- Generator: Adobe Illustrator 24.0.1, SVG Export Plug-In . SVG Version: 6.00 Build 0)  -->
<svg version="1.1" id="Layer_1" xmlns="http://www.w3.org/2000/svg" xmlns:xlink="http://www.w3.org/1999/xlink" x="0px" y="0px"
	 viewBox="0 0 16 16" style="enable-background:new 0 0 16 16;" xml:space="preserve" fill="#FDFDFD">
<path d="M15.6,0.5C15.5,0.5,15.5,0.5,15.6,0.5C15.5,0.4,15.5,0.4,15.6,0.5C15.2,0.1,14.8,0,14.4,0H9.5H6.5H1.6c0,0,0,0,0,0
	c0,0,0,0,0,0C1.3,0,1.2,0,1,0.1c0,0,0,0,0,0c-0.1,0-0.1,0.1-0.2,0.1c0,0-0.1,0-0.1,0.1C0.6,0.3,0.5,0.4,0.4,0.5c0,0,0,0,0,0.1
	C0.2,0.8,0.1,1.1,0,1.4c0,0,0,0,0,0v0c0,0.1,0,0.1,0,0.2c0,0,0,0.1,0,0.1v12.6c0,0.1,0,0.1,0,0.2c0,0.4,0.2,0.8,0.5,1.1
	c0,0,0.1,0,0.1,0.1c0.2,0.1,0.3,0.2,0.5,0.2c0.1,0,0.1,0.1,0.2,0.1h13.2c0.7-0.1,1.2-0.6,1.3-1.2c0-0.1,0-0.1,0-0.2c0,0,0-0.1,0-0.1
	c0,0,0,0,0-0.1c0,0,0,0,0-0.1V9.5V6.5V1.6C16,1.1,15.8,0.8,15.6,0.5z M6.5,12.9H3.1V9.5V6.5V3.1h9.8v9.8H9.5H6.5z"/>
</svg>
