<svg width="18" height="14" viewBox="0 0 18 14" fill="none" xmlns="http://www.w3.org/2000/svg">
<path id="Union" fill-rule="evenodd" clip-rule="evenodd" d="M2 1.75C1.86193 1.75 1.75 1.86193 1.75 2L1.75 12C1.75 12.1399 1.86189 12.25 1.99812 12.25H2.02722H2.05636H2.08554H2.11476H2.14401H2.17329H2.20262H2.23197H2.26136H2.29079H2.32025H2.34974H2.37927H2.40883H2.43842H2.46805H2.4977H2.5274H2.55712H2.58687H2.61666H2.64648H2.67633H2.70621H2.73612H2.76606H2.79603H2.82604H2.85607H2.88613H2.91622H2.94633H2.97648H3.00666H3.03686H3.06709H3.09735H3.12763H3.15795H3.18829H3.21865H3.24905H3.27946H3.30991H3.34038H3.37087H3.40139H3.43194H3.46251H3.4931H3.52372H3.55436H3.58502H3.61571H3.64642H3.67716H3.70791H3.73869H3.76949H3.80031H3.83116H3.86202H3.89291H3.92381H3.95474H3.98569H4.01665H4.04764H4.07864H4.10967H4.14071H4.17178H4.20286H4.23395H4.26507H4.29621H4.32736H4.35853H4.38971H4.42091H4.45213H4.48337H4.51462H4.54588H4.57717H4.60846H4.63977H4.6711H4.70244H4.73379H4.76516H4.79654H4.82794H4.85934H4.89077H4.9222H4.95364H4.9851H5.01657H5.04805H5.07954H5.11105H5.14256H5.17408H5.20562H5.23716H5.26872H5.30028H5.33185H5.36343H5.39502H5.42662H5.45823H5.48984H5.52147H5.5531H5.58473H5.61638H5.64803H5.67968H5.71135H5.74302H5.77469H5.80637H5.83806H5.86975H5.90144H5.93314H5.96484H5.99655H6.02826H6.05997H6.09169H6.12341H6.15513H6.18686H6.21858H6.25031H6.28204H6.31377H6.34551H6.37724H6.40897H6.44071H6.47244H6.50418H6.53591H6.56764H6.59937H6.6311H6.66283H6.69456H6.72628H6.75801H6.78973H6.82145H6.85316H6.88487H6.91658H6.94828H6.97998H7.01168H7.04337H7.07505H7.10674H7.13841H7.17008H7.20175H7.2334H7.26506H7.2967H7.32834H7.35997H7.39159H7.42321H7.45482H7.48642H7.51801H7.54959H7.58117H7.61273H7.64429H7.67584H7.70737H7.7389H7.77041H7.80192H7.83341H7.86489H7.89637H7.92783H7.95927H7.99071H8.02213H8.05354H8.08494H8.11632H8.14769H8.17905H8.21039H8.24172H8.27304H8.30433H8.33562H8.36689H8.39814H8.42938H8.4606H8.49181H8.52299H8.55417H8.58532H8.61646H8.64758H8.67868H8.70977H8.74083H8.77188H8.80291H8.83392H8.86491H8.89588H8.92683H8.95776H8.98867H9.01956H9.05043H9.08127H9.1121H9.1429H9.17369L9.20445 12.25H9.23519H9.2659H9.29659H9.32726H9.35791H9.38853H9.41913H9.4497H9.48025H9.51078H9.54128H9.57175H9.6022H9.63262H9.66302H9.69339H9.72374H9.75405H9.78435H9.81461H9.84485H9.87505H9.90523H9.93539H9.96551H9.9956H10.0257H10.0557H10.0857H10.1157H10.1456H10.1756H10.2054H10.2353H10.2651H10.2949H10.3247H10.3544H10.3841H10.4138H10.4434H10.473H10.5026H10.5321H10.5616H10.5911H10.6205H10.6499H10.6793H10.7086H10.7379H10.7671H10.7964H10.8255H10.8547H10.8838H10.9129H10.9419H10.9709H10.9999H11.0288H11.0577H11.0866H11.1154H11.1441H11.1729H11.2016H11.2302H11.2588H11.2874H11.316H11.3444H11.3729H11.4013H11.4297H11.458H11.4863H11.5146H11.5428H11.5709H11.599H11.6271H11.6551H11.6831H11.7111H11.739H11.7668H11.7947H11.8224H11.8501H11.8778H11.9055H11.933H11.9606H11.9881H12.0155H12.0429H12.0703H12.0976H12.1248H12.152H12.1792H12.2063H12.2334H12.2604H12.2874H12.3143H12.3411H12.368H12.3947H12.4214H12.4481H12.4747H12.5013H12.5278H12.5543H12.5807H12.607H12.6333H12.6596H12.6858H12.7119H12.738H12.7641H12.79H12.816H12.8418H12.8677H12.8934H12.9191H12.9448H12.9704H12.9959H13.0214H13.0469H13.0722H13.0975H13.1228H13.148H13.1731H13.1982H13.2233H13.2482H13.2731H13.298H13.3228H13.3475H13.3722H13.3968H13.4213H13.4458H13.4703H13.4946H13.5189H13.5432H13.5674H13.5915H13.6155H13.6395H13.6635H13.6873H13.7111H13.7349H13.7586H13.7822H13.8057H13.8292H13.8526H13.876H13.8993H13.9225H13.9456H13.9687H13.9918H14.0147H14.0376H14.0604H14.0832H14.1059H14.1285H14.151H14.1735H14.1959H14.2183H14.2406H14.2628H14.2849H14.307H14.329H14.3509H14.3727H14.3945H14.4162H14.4379H14.4595H14.481H14.5024H14.5237H14.545H14.5662H14.5873H14.6084H14.6294H14.6503H14.6711H14.6919H14.7126H14.7332H14.7537H14.7742H14.7946H14.8149H14.8351H14.8553H14.8753H14.8953H14.9153H14.9351H14.9549H14.9746H14.9942H15.0137H15.0332H15.0525H15.0718H15.0911H15.1102H15.1292H15.1482H15.1671H15.1859H15.2047H15.2233H15.2419H15.2604H15.2788H15.2971H15.3153H15.3335H15.3515H15.3695H15.3874H15.4053H15.423H15.4406H15.4582H15.4757H15.4931H15.5104H15.5276H15.5447H15.5618H15.5788H15.5956H15.6124H15.6291H15.6458H15.6623H15.6787H15.6951H15.7113H15.7275H15.7436H15.7596H15.7755H15.7913H15.807H15.8227H15.8382H15.8537H15.869H15.8843H15.8995H15.9146H15.9295H15.9444H15.9593H15.974H15.9886H16.0031C16.1381 12.25 16.25 12.1411 16.25 12L16.25 2C16.25 1.86193 16.1381 1.75 16 1.75L2 1.75ZM0.25 2C0.25 1.0335 1.0335 0.25 2 0.25L16 0.25C16.9665 0.25 17.75 1.0335 17.75 2L17.75 12C17.75 12.9634 16.9727 13.75 16.0031 13.75H15.9886H15.974H15.9593H15.9444H15.9295H15.9146H15.8995H15.8843H15.869H15.8537H15.8382H15.8227H15.807H15.7913H15.7755H15.7596H15.7436H15.7275H15.7113H15.6951H15.6787H15.6623H15.6458H15.6291H15.6124H15.5956H15.5788H15.5618H15.5447H15.5276H15.5104H15.4931H15.4757H15.4582H15.4406H15.423H15.4053H15.3874H15.3695H15.3515H15.3335H15.3153H15.2971H15.2788H15.2604H15.2419H15.2233H15.2047H15.1859H15.1671H15.1482H15.1292H15.1102H15.0911H15.0718H15.0525H15.0332H15.0137H14.9942H14.9746H14.9549H14.9351H14.9153H14.8953H14.8753H14.8553H14.8351H14.8149H14.7946H14.7742H14.7537H14.7332H14.7126H14.6919H14.6711H14.6503H14.6294H14.6084H14.5873H14.5662H14.545H14.5237H14.5024H14.481H14.4595H14.4379H14.4162H14.3945H14.3727H14.3509H14.329H14.307H14.2849H14.2628H14.2406H14.2183H14.1959H14.1735H14.151H14.1285H14.1059H14.0832H14.0604H14.0376H14.0147H13.9918H13.9687H13.9456H13.9225H13.8993H13.876H13.8526H13.8292H13.8057H13.7822H13.7586H13.7349H13.7111H13.6873H13.6635H13.6395H13.6155H13.5915H13.5674H13.5432H13.5189H13.4946H13.4703H13.4458H13.4213H13.3968H13.3722H13.3475H13.3228H13.298H13.2731H13.2482H13.2233H13.1982H13.1731H13.148H13.1228H13.0975H13.0722H13.0469H13.0214H12.9959H12.9704H12.9448H12.9191H12.8934H12.8677H12.8418H12.816H12.79H12.7641H12.738H12.7119H12.6858H12.6596H12.6333H12.607H12.5807H12.5543H12.5278H12.5013H12.4747H12.4481H12.4214H12.3947H12.368H12.3411H12.3143H12.2874H12.2604H12.2334H12.2063H12.1792H12.152H12.1248H12.0976H12.0703H12.0429H12.0155H11.9881H11.9606H11.933H11.9055H11.8778H11.8501H11.8224H11.7947H11.7668H11.739H11.7111H11.6831H11.6551H11.6271H11.599H11.5709H11.5428H11.5146H11.4863H11.458H11.4297H11.4013H11.3729H11.3444H11.316H11.2874H11.2588H11.2302H11.2016H11.1729H11.1441H11.1154H11.0866H11.0577H11.0288H10.9999H10.9709H10.9419H10.9129H10.8838H10.8547H10.8255H10.7964H10.7671H10.7379H10.7086H10.6793H10.6499H10.6205H10.5911H10.5616H10.5321H10.5026H10.473H10.4434H10.4138H10.3841H10.3544H10.3247H10.2949H10.2651H10.2353H10.2054H10.1756H10.1456H10.1157H10.0857H10.0557H10.0257H9.9956H9.96551H9.93539H9.90523H9.87505H9.84485H9.81461H9.78435H9.75405H9.72374H9.69339H9.66302H9.63262H9.6022H9.57175H9.54128H9.51078H9.48025H9.4497H9.41913H9.38853H9.35791H9.32726H9.29659H9.2659H9.23519H9.20445L9.17369 13.75H9.1429H9.1121H9.08127H9.05043H9.01956H8.98867H8.95776H8.92683H8.89588H8.86491H8.83392H8.80291H8.77188H8.74083H8.70977H8.67868H8.64758H8.61646H8.58532H8.55417H8.523H8.49181H8.4606H8.42938H8.39814H8.36689H8.33562H8.30434H8.27304H8.24172H8.21039H8.17905H8.14769H8.11632H8.08494H8.05354H8.02213H7.99071H7.95927H7.92783H7.89637H7.86489H7.83341H7.80192H7.77041H7.7389H7.70737H7.67584H7.64429H7.61273H7.58117H7.54959H7.51801H7.48642H7.45482H7.42321H7.39159H7.35997H7.32834H7.2967H7.26506H7.2334H7.20175H7.17008H7.13841H7.10674H7.07505H7.04337H7.01168H6.97998H6.94828H6.91658H6.88487H6.85316H6.82145H6.78973H6.75801H6.72628H6.69456H6.66283H6.6311H6.59937H6.56764H6.53591H6.50418H6.47244H6.44071H6.40897H6.37724H6.34551H6.31377H6.28204H6.25031H6.21858H6.18686H6.15513H6.12341H6.09169H6.05997H6.02826H5.99655H5.96484H5.93314H5.90144H5.86975H5.83806H5.80637H5.77469H5.74302H5.71135H5.67968H5.64803H5.61638H5.58473H5.5531H5.52147H5.48984H5.45823H5.42662H5.39502H5.36343H5.33185H5.30028H5.26872H5.23716H5.20562H5.17408H5.14256H5.11105H5.07954H5.04805H5.01657H4.9851H4.95364H4.9222H4.89077H4.85935H4.82794H4.79654H4.76516H4.73379H4.70244H4.6711H4.63977H4.60846H4.57717H4.54588H4.51462H4.48337H4.45213H4.42091H4.38971H4.35853H4.32736H4.29621H4.26507H4.23395H4.20286H4.17178H4.14071H4.10967H4.07864H4.04764H4.01665H3.98569H3.95474H3.92381H3.89291H3.86202H3.83116H3.80031H3.76949H3.73869H3.70791H3.67716H3.64642H3.61571H3.58502H3.55436H3.52372H3.4931H3.46251H3.43194H3.40139H3.37087H3.34038H3.30991H3.27946H3.24905H3.21865H3.18829H3.15795H3.12763H3.09735H3.06709H3.03686H3.00666H2.97648H2.94633H2.91622H2.88613H2.85607H2.82604H2.79603H2.76606H2.73612H2.70621H2.67633H2.64648H2.61666H2.58687H2.55712H2.5274H2.4977H2.46805H2.43842H2.40883H2.37927H2.34974H2.32025H2.29079H2.26136H2.23197H2.20262H2.17329H2.14401H2.11476H2.08554H2.05637H2.02722H1.99812C1.02978 13.75 0.25 12.9647 0.25 12L0.25 2Z" fill="#F3F3F3"/>
</svg>
