<svg width="14" height="10" viewBox="0 0 14 10" fill="none" xmlns="http://www.w3.org/2000/svg">
<path id="Union" fill-rule="evenodd" clip-rule="evenodd" d="M2.54303 1.65729C2.40496 1.65729 2.29303 1.76922 2.29303 1.90729L2.29303 8.09274C2.29303 8.23198 2.40493 8.34274 2.54183 8.34274H2.56027H2.57873H2.59721H2.61571H2.63422H2.65275H2.6713H2.68987H2.70845H2.72705H2.74567H2.76431H2.78296H2.80163H2.82031H2.83902H2.85774H2.87647H2.89522H2.91399H2.93277H2.95157H2.97039H2.98922H3.00806H3.02693H3.0458H3.06469H3.0836H3.10252H3.12145H3.1404H3.15937H3.17835H3.19734H3.21635H3.23537H3.2544H3.27345L3.29251 8.34274H3.31158H3.33067H3.34977H3.36888H3.38801H3.40714H3.42629H3.44546H3.46463H3.48382H3.50302H3.52223H3.54145H3.56069H3.57993H3.59919H3.61846H3.63774H3.65703H3.67633H3.69564H3.71496H3.73429H3.75363H3.77299H3.79235H3.81172H3.8311H3.8505H3.8699H3.88931H3.90873H3.92816H3.94759H3.96704H3.98649H4.00596H4.02543H4.04491H4.0644H4.08389H4.1034H4.12291H4.14243H4.16196H4.18149H4.20103H4.22058H4.24014H4.2597H4.27927H4.29884H4.31842H4.33801H4.35761H4.37721H4.39681H4.41642H4.43604H4.45567H4.47529H4.49493H4.51457H4.53421H4.55386H4.57351H4.59317H4.61283H4.6325H4.65217H4.67184H4.69152H4.7112H4.73089H4.75058H4.77027H4.78997H4.80967H4.82937H4.84907H4.86878H4.88849H4.90821H4.92792H4.94764H4.96736H4.98708H5.0068H5.02653H5.04625H5.06598H5.08571H5.10544H5.12517H5.1449H5.16464H5.18437H5.2041H5.22384H5.24357H5.26331H5.28304H5.30278H5.32251H5.34224H5.36198H5.38171H5.40144H5.42117H5.4409H5.46063H5.48035H5.50008H5.5198H5.53953H5.55925H5.57896H5.59868H5.61839H5.6381H5.65781H5.67752H5.69722H5.71692H5.73662H5.75631H5.776H5.79569H5.81537H5.83505H5.85473H5.8744H5.89407H5.91373H5.93339H5.95304H5.97269H5.99234H6.01198H6.03161H6.05124H6.07087H6.09049H6.1101H6.12971H6.14931H6.16891H6.1885H6.20808H6.22766H6.24723H6.26679H6.28635H6.3059H6.32545H6.34498H6.36451H6.38403H6.40355H6.42305H6.44255H6.46204H6.48152H6.501H6.52046H6.53992H6.55937H6.57881H6.59824H6.61766H6.63708H6.65648H6.67587H6.69526H6.71463H6.734H6.75336H6.7727H6.79204H6.81136H6.83068H6.84998H6.86927H6.88856H6.90783H6.92709H6.94634H6.96557H6.9848H7.00401H7.02322H7.04241H7.06159H7.08075H7.09991H7.11905H7.13818H7.15729H7.1764H7.19549H7.21457H7.23363H7.25268H7.27172H7.29074H7.30975H7.32875H7.34773H7.3667H7.38565H7.40459H7.42352H7.44243H7.46132H7.4802H7.49907H7.51792H7.53676H7.55557H7.57438H7.59317H7.61194H7.63069H7.64944H7.66816H7.68687H7.70556H7.72423H7.74289H7.76153H7.78015H7.79876H7.81735H7.83592H7.85448H7.87301H7.89153H7.91003H7.92851H7.94698H7.96542H7.98385H8.00226H8.02065H8.03902H8.05737H8.07571H8.09402H8.11231H8.13059H8.14884H8.16708H8.1853H8.20349H8.22167H8.23982H8.25795H8.27607H8.29416H8.31223H8.33028H8.34831H8.36632H8.38431H8.40228H8.42022H8.43814H8.45604H8.47392H8.49178H8.50961H8.52742H8.54521H8.56298H8.58072H8.59844H8.61614H8.63381H8.65146H8.66909H8.68669H8.70427H8.72183H8.73936H8.75687H8.77435H8.79181H8.80925H8.82665H8.84404H8.8614H8.87873H8.89604H8.91333H8.93059H8.94782H8.96503H8.98221H8.99936H9.01649H9.0336H9.05067H9.06772H9.08475H9.10174H9.11871H9.13566H9.15257H9.16946H9.18632H9.20315H9.21996H9.23674H9.25349H9.27021H9.2869H9.30357H9.3202H9.33681H9.35339H9.36994H9.38646H9.40295H9.41942H9.43585H9.45225H9.46863H9.48497H9.50129H9.51757H9.53382H9.55005H9.56624H9.5824H9.59853H9.61464H9.63071H9.64674H9.66275H9.67873H9.69467H9.71058H9.72647H9.74231H9.75813H9.77392H9.78967H9.80539H9.82108H9.83673H9.85235H9.86794H9.8835H9.89902H9.91451H9.92996H9.94539H9.96077H9.97613H9.99145H10.0067H10.022H10.0372H10.0524H10.0675H10.0826H10.0977H10.1128H10.1278H10.1427H10.1577H10.1726H10.1875H10.2023H10.2171H10.2318H10.2466H10.2612H10.2759H10.2905H10.3051H10.3196H10.3341H10.3486H10.363H10.3774H10.3917H10.4061H10.4203H10.4346H10.4488H10.4629H10.4771H10.4911H10.5052H10.5192H10.5332H10.5471H10.561H10.5748H10.5886H10.6024H10.6161H10.6298H10.6435H10.6571H10.6707H10.6842H10.6977H10.7111H10.7246H10.7379H10.7512H10.7645H10.7778H10.791H10.8041H10.8173H10.8303H10.8434H10.8564H10.8693H10.8822H10.8951H10.9079H10.9207H10.9335H10.9461H10.9588H10.9714H10.984H10.9965H11.009H11.0214H11.0338H11.0462H11.0585H11.0707H11.0829H11.0951H11.1072H11.1193H11.1313H11.1433H11.1553H11.1672H11.179H11.1908H11.2026H11.2143H11.226H11.2376H11.2492H11.2607H11.2722H11.2837H11.295H11.3064H11.3177H11.3289H11.3401H11.3513H11.3624H11.3735H11.3845H11.3954H11.4064H11.4172H11.428H11.4388H11.4495H11.4602C11.5951 8.34274 11.707 8.234 11.707 8.09274V1.90729C11.707 1.76922 11.595 1.65729 11.457 1.65729L2.54303 1.65729ZM0.79303 1.90729C0.79303 0.940788 1.57653 0.157288 2.54303 0.157288L11.457 0.157288C12.4235 0.157288 13.207 0.94079 13.207 1.90729V8.09274C13.207 9.05605 12.4299 9.84274 11.4602 9.84274H11.4495H11.4388H11.428H11.4172H11.4064H11.3954H11.3845H11.3735H11.3624H11.3513H11.3401H11.3289H11.3177H11.3064H11.295H11.2837H11.2722H11.2607H11.2492H11.2376H11.226H11.2143H11.2026H11.1908H11.179H11.1672H11.1553H11.1433H11.1313H11.1193H11.1072H11.0951H11.0829H11.0707H11.0585H11.0462H11.0338H11.0214H11.009H10.9965H10.984H10.9714H10.9588H10.9461H10.9335H10.9207H10.9079H10.8951H10.8822H10.8693H10.8564H10.8434H10.8303H10.8173H10.8041H10.791H10.7778H10.7645H10.7512H10.7379H10.7246H10.7111H10.6977H10.6842H10.6707H10.6571H10.6435H10.6298H10.6161H10.6024H10.5886H10.5748H10.561H10.5471H10.5332H10.5192H10.5052H10.4911H10.4771H10.4629H10.4488H10.4346H10.4203H10.4061H10.3917H10.3774H10.363H10.3486H10.3341H10.3196H10.3051H10.2905H10.2759H10.2612H10.2466H10.2318H10.2171H10.2023H10.1875H10.1726H10.1577H10.1427H10.1278H10.1128H10.0977H10.0826H10.0675H10.0524H10.0372H10.022H10.0067H9.99145H9.97613H9.96077H9.94539H9.92996H9.91451H9.89902H9.8835H9.86794H9.85235H9.83673H9.82108H9.80539H9.78967H9.77392H9.75813H9.74231H9.72647H9.71058H9.69467H9.67873H9.66275H9.64674H9.63071H9.61464H9.59853H9.5824H9.56624H9.55005H9.53382H9.51757H9.50129H9.48497H9.46863H9.45225H9.43585H9.41942H9.40296H9.38646H9.36994H9.35339H9.33681H9.3202H9.30357H9.2869H9.27021H9.25349H9.23674H9.21996H9.20316H9.18632H9.16946H9.15257H9.13566H9.11871H9.10174H9.08475H9.06772H9.05067H9.0336H9.01649H8.99936H8.98221H8.96503H8.94782H8.93059H8.91333H8.89604H8.87873H8.8614H8.84404H8.82666H8.80925H8.79181H8.77435H8.75687H8.73936L8.72183 9.84274H8.70427H8.68669H8.66909H8.65146H8.63381H8.61614H8.59844H8.58072H8.56298H8.54521H8.52742H8.50961H8.49178H8.47392H8.45604H8.43814H8.42022H8.40228H8.38431H8.36632H8.34831H8.33028H8.31223H8.29416H8.27607H8.25795H8.23982H8.22167H8.20349H8.1853H8.16708H8.14884H8.13059H8.11231H8.09402H8.07571H8.05737H8.03902H8.02065H8.00226H7.98385H7.96542H7.94698H7.92851H7.91003H7.89153H7.87301H7.85448H7.83592H7.81735H7.79876H7.78015H7.76153H7.74289H7.72423H7.70556H7.68687H7.66816H7.64944H7.63069H7.61194H7.59317H7.57438H7.55557H7.53676H7.51792H7.49907H7.4802H7.46132H7.44243H7.42352H7.40459H7.38565H7.3667H7.34773H7.32875H7.30975H7.29074H7.27172H7.25268H7.23363H7.21457H7.19549H7.1764H7.15729H7.13818H7.11905H7.09991H7.08075H7.06159H7.04241H7.02322H7.00401H6.9848H6.96557H6.94634H6.92709H6.90783H6.88856H6.86927H6.84998H6.83068H6.81136H6.79204H6.7727H6.75336H6.734H6.71463H6.69526H6.67587H6.65648H6.63708H6.61766H6.59824H6.57881H6.55937H6.53992H6.52046H6.501H6.48152H6.46204H6.44255H6.42305H6.40355H6.38403H6.36451H6.34498H6.32545H6.3059H6.28635H6.26679H6.24723H6.22766H6.20808H6.1885H6.16891H6.14931H6.12971H6.1101H6.09049H6.07087H6.05124H6.03161H6.01198H5.99234H5.97269H5.95304H5.93339H5.91373H5.89407H5.8744H5.85473H5.83505H5.81537H5.79569H5.776H5.75631H5.73662H5.71692H5.69722H5.67752H5.65781H5.6381H5.61839H5.59868H5.57896H5.55925H5.53953H5.5198H5.50008H5.48035H5.46063H5.4409H5.42117H5.40144H5.38171H5.36198H5.34224H5.32251H5.30278H5.28304H5.26331H5.24357H5.22384H5.2041H5.18437H5.16464H5.1449H5.12517H5.10544H5.08571H5.06598H5.04625H5.02653H5.0068H4.98708H4.96736H4.94764H4.92792H4.90821H4.88849H4.86878H4.84907H4.82937H4.80967H4.78997H4.77027H4.75058H4.73089H4.7112H4.69152H4.67184H4.65217H4.6325H4.61283H4.59317H4.57351H4.55386H4.53421H4.51457H4.49493H4.47529H4.45567H4.43604H4.41642H4.39681H4.37721H4.35761H4.33801H4.31842H4.29884H4.27927H4.2597H4.24014H4.22058H4.20103H4.18149H4.16196H4.14243H4.12291H4.1034H4.08389H4.0644H4.04491H4.02543H4.00596H3.98649H3.96704H3.94759H3.92816H3.90873H3.88931H3.8699H3.8505H3.8311H3.81172H3.79235H3.77299H3.75363H3.73429H3.71496H3.69564H3.67633H3.65703H3.63774H3.61846H3.59919H3.57993H3.56069H3.54145H3.52223H3.50302H3.48382H3.46463H3.44546H3.42629H3.40714H3.38801H3.36888H3.34977H3.33067H3.31158H3.29251H3.27345H3.2544H3.23537H3.21635H3.19734H3.17835H3.15937H3.1404H3.12145H3.10252H3.0836H3.06469H3.0458H3.02693H3.00806H2.98922H2.97039H2.95157H2.93277H2.91399H2.89522H2.87647H2.85774H2.83902H2.82031H2.80163H2.78296H2.76431H2.74567H2.72705H2.70845H2.68987H2.6713H2.65275H2.63422H2.61571H2.59721H2.57873H2.56027H2.54183C1.57416 9.84274 0.79303 9.05807 0.79303 8.09274L0.79303 1.90729Z" fill="#F3F3F3"/>
</svg>
