<?xml version="1.0" encoding="utf-8"?>
<!-- Generator: Adobe Illustrator 24.1.1, SVG Export Plug-In . SVG Version: 6.00 Build 0)  -->
<svg version="1.1" id="Layer_1" xmlns="http://www.w3.org/2000/svg" xmlns:xlink="http://www.w3.org/1999/xlink" x="0px" y="0px"
	 viewBox="0 0 16 16" style="enable-background:new 0 0 16 16;" xml:space="preserve">
<style type="text/css">
	.st0{fill:#231F20;}
</style>
<path class="st0" d="M-2.3,8"/>
<g>
	<g>
		<path class="st0" d="M10,6.8c0,0.1,0,0.3,0.1,0.4c0.1,0.1,0.4,0,0.6-0.1l3.5-2.7c0.4-0.3,0.4-0.9,0-1.2l-3.4-2.5
			C10.4,0.4,10,0.6,10,1.1v5.6C10,6.7,10,6.8,10,6.8z"/>
	</g>
	<path class="st0" d="M13,3H3.7c-1.7,0-3,1.4-3,3v6.5c0,0.2,0,0.3,0,0.5h2V6.5C2.7,5.6,3.4,5,4.2,5H13V3L13,3z"/>
</g>
</svg>
