<svg width="18" height="16" viewBox="0 0 18 16" fill="none" xmlns="http://www.w3.org/2000/svg">
<path d="M14.7296 1H3.92308C3.67826 1 3.44347 1.11589 3.27036 1.32218C3.09725 1.52847 3 1.80826 3 2.1V5.4C3 5.69174 3.09725 5.97153 3.27036 6.17782C3.44347 6.38411 3.67826 6.5 3.92308 6.5H14.0769C14.3217 6.5 14.5565 6.61589 14.7296 6.82218C14.9027 7.02847 15 7.30826 15 7.6V10.9C15 11.1917 14.9027 11.4715 14.7296 11.6778C14.5565 11.8841 14.3217 12 14.0769 12H8.5" stroke="#F3F3F3" stroke-width="1.3" stroke-linecap="square" stroke-linejoin="round"/>
<path d="M11.5 12H3L6 15" stroke="#F3F3F3" stroke-width="1.3" stroke-linecap="square"/>
</svg>