<?xml version="1.0" encoding="utf-8"?>
<!-- Generator: Adobe Illustrator 24.1.1, SVG Export Plug-In . SVG Version: 6.00 Build 0)  -->
<svg version="1.1" id="Layer_1" xmlns="http://www.w3.org/2000/svg" xmlns:xlink="http://www.w3.org/1999/xlink" x="0px" y="0px"
	 viewBox="0 0 16 16" style="enable-background:new 0 0 16 16;" xml:space="preserve">
<style type="text/css">
	.st0{fill:#FFFFFF;stroke:#000000;stroke-miterlimit:10;}
	.st1{stroke:#000000;stroke-width:1.3;stroke-miterlimit:10;}
</style>
<path class="st0" d="M-7.9-4.4"/>
<g>
	<g>
		<path class="st1" d="M9,3.2c2.4,0.2,4.5,2,5,4.5c0.5,3-1.5,5.9-4.5,6.4S3.6,12.7,3,9.7C3,9.2,2.9,8.8,3,8.3L2,8.5
			c0,0.5,0,0.9,0.1,1.4c0.6,3.5,4,5.9,7.6,5.3c3.5-0.6,5.9-4,5.3-7.6c-0.5-2.9-2.8-5-5.6-5.3C9.2,2.6,9.1,2.9,9,3.2z"/>
	</g>
	<g>
		<path d="M8.9,0.6C8.8,0.2,8.4,0.1,8.2,0.5L6,3.4c-0.3,0.4-0.2,0.8,0.3,1l3.3,1.2C10,5.7,10.2,5.5,10.1,5L8.9,0.6z"/>
	</g>
</g>
</svg>
