<svg width="18" height="15" viewBox="0 0 18 15" fill="none" xmlns="http://www.w3.org/2000/svg">
<path id="Union" fill-rule="evenodd" clip-rule="evenodd" d="M8.33429 2.02443L5.04404 5.38821H13.9238C15.7282 5.38821 17.3828 6.71618 17.3828 8.53851V15H15.8828V8.53851C15.8828 7.71436 15.0804 6.88821 13.9238 6.88821H3.26131H1.47857L2.72515 5.61378L7.26197 0.975555L8.33429 2.02443ZM12.6378 13.7V10.3H1.9308V13.7H12.6378ZM13.9378 9.99999C13.9378 9.44771 13.4901 8.99999 12.9378 8.99999H1.6308C1.07851 8.99999 0.630798 9.44771 0.630798 9.99999V14C0.630798 14.5523 1.07851 15 1.6308 15H12.9378C13.4901 15 13.9378 14.5523 13.9378 14V9.99999Z" fill="#F3F3F3"/>
</svg>