<svg width="17" height="16" viewBox="0 0 17 16" fill="none" xmlns="http://www.w3.org/2000/svg">
<path id="Union" fill-rule="evenodd" clip-rule="evenodd" d="M9.29043 13.9819L12.6154 10.5023H3.70696C1.88527 10.5023 0.247982 9.13339 0.247982 7.29527V0.68119H1.74798V7.29527C1.74798 8.16613 2.56768 9.00225 3.70696 9.00225H14.3695H16.1235L14.9117 10.2704L10.3749 15.0182L9.29043 13.9819ZM4.99299 1.98119V5.52289H15.7V1.98119H4.99299ZM3.69299 5.82289C3.69299 6.37517 4.14071 6.82289 4.69299 6.82289H16C16.5523 6.82289 17 6.37517 17 5.82289V1.68119C17 1.1289 16.5523 0.681189 16 0.681189H4.69299C4.14071 0.681189 3.69299 1.1289 3.69299 1.68119V5.82289Z" fill="#F3F3F3"/>
</svg>