<?xml version="1.0" encoding="UTF-8"?>
<svg xmlns="http://www.w3.org/2000/svg" xmlns:xlink="http://www.w3.org/1999/xlink" width="16px" height="16px" viewBox="0 0 16 16" version="1.1">
<g id="surface1">
<!-- <path style=" stroke:none;fill-rule:nonzero;fill:rgb(15.686275%,78.823529%,21.568627%);fill-opacity:1;" d="M 15.894531 7.992188 C 15.894531 12.355469 12.355469 15.894531 7.992188 15.894531 C 3.625 15.894531 0.0898438 12.355469 0.0898438 7.992188 C 0.0898438 3.625 3.625 0.0898438 7.992188 0.0898438 C 12.355469 0.0898438 15.894531 3.625 15.894531 7.992188 Z M 15.894531 7.992188 "/> -->
<path style=" stroke:none;fill-rule:nonzero;fill:rgb(100%,100%,100%);fill-opacity:1;" d="M 6.84375 11.414062 C 6.84375 11.414062 6.84375 11.414062 6.839844 11.414062 C 6.613281 11.414062 6.394531 11.3125 6.246094 11.140625 L 3.878906 8.390625 C 3.59375 8.0625 3.632812 7.5625 3.964844 7.277344 C 4.292969 6.992188 4.792969 7.03125 5.078125 7.359375 L 6.851562 9.421875 L 10.910156 4.832031 C 11.199219 4.507812 11.699219 4.476562 12.027344 4.765625 C 12.355469 5.054688 12.386719 5.554688 12.097656 5.878906 L 7.4375 11.148438 C 7.289062 11.320312 7.070312 11.414062 6.84375 11.414062 Z M 6.84375 11.414062 "/>
</g>
</svg>
