<?xml version="1.0" encoding="UTF-8"?>
<svg xmlns="http://www.w3.org/2000/svg" xmlns:xlink="http://www.w3.org/1999/xlink" width="16px" height="16px" viewBox="0 0 16 16" version="1.1">
<g id="surface1">
<!-- <path style=" stroke:none;fill-rule:nonzero;fill:rgb(89.803922%,0%,0%);fill-opacity:1;" d="M 7.992188 15.894531 C 3.632812 15.894531 0.0898438 12.347656 0.0898438 7.992188 C 0.0898438 3.632812 3.632812 0.0898438 7.992188 0.0898438 C 12.347656 0.0898438 15.894531 3.632812 15.894531 7.992188 C 15.894531 12.347656 12.347656 15.894531 7.992188 15.894531 Z M 7.992188 15.894531 "/> -->
<path style=" stroke:none;fill-rule:nonzero;fill:rgb(100%,100%,100%);fill-opacity:1;" d="M 7.992188 10.179688 C 7.671875 10.179688 7.40625 9.929688 7.394531 9.609375 L 6.84375 4.292969 C 6.792969 3.625 7.320312 3.058594 7.992188 3.058594 C 8.660156 3.058594 9.1875 3.625 9.140625 4.292969 L 8.585938 9.609375 C 8.574219 9.929688 8.3125 10.179688 7.992188 10.179688 Z M 7.992188 10.179688 "/>
<path style=" stroke:none;fill-rule:nonzero;fill:rgb(100%,100%,100%);fill-opacity:1;" d="M 8.941406 11.972656 C 8.941406 12.5 8.515625 12.925781 7.992188 12.925781 C 7.464844 12.925781 7.039062 12.5 7.039062 11.972656 C 7.039062 11.445312 7.464844 11.019531 7.992188 11.019531 C 8.515625 11.019531 8.941406 11.445312 8.941406 11.972656 Z M 8.941406 11.972656 "/>
</g>
</svg>
