<?xml version="1.0" encoding="UTF-8"?>
<svg xmlns="http://www.w3.org/2000/svg" xmlns:xlink="http://www.w3.org/1999/xlink" width="256px" height="256px" viewBox="0 0 256 256" version="1.1">
<g id="surface1">
<path style=" stroke:none;fill-rule:nonzero;fill:#eb4f64;fill-opacity:1;" d="M 127.875 162.875 C 122.75 162.875 118.5 158.875 118.3125 153.75 L 109.5 68.6875 C 108.6875 58 117.125 48.9375 127.875 48.9375 C 138.5625 48.9375 147 58 146.25 68.6875 L 137.375 153.75 C 137.1875 158.875 133 162.875 127.875 162.875 Z M 127.875 162.875 "/>
<path style=" stroke:none;fill-rule:nonzero;fill:#eb4f64;fill-opacity:1;" d="M 143.0625 191.5625 C 143.0625 200 136.25 206.8125 127.875 206.8125 C 119.4375 206.8125 112.625 200 112.625 191.5625 C 112.625 183.125 119.4375 176.3125 127.875 176.3125 C 136.25 176.3125 143.0625 183.125 143.0625 191.5625 Z M 143.0625 191.5625 "/>
</g>
</svg>
