<?xml version="1.0" encoding="UTF-8"?>
<svg xmlns="http://www.w3.org/2000/svg" xmlns:xlink="http://www.w3.org/1999/xlink" width="128px" height="128px" viewBox="0 0 128 128" version="1.1">
<g id="surface1">
<path style=" stroke:none;fill-rule:nonzero;fill:rgb(92.156863%,30.980392%,39.215686%);fill-opacity:1;" d="M 63.9375 81.4375 C 61.375 81.4375 59.25 79.4375 59.15625 76.875 L 54.75 34.34375 C 54.34375 29 58.5625 24.46875 63.9375 24.46875 C 69.28125 24.46875 73.5 29 73.125 34.34375 L 68.6875 76.875 C 68.59375 79.4375 66.5 81.4375 63.9375 81.4375 Z M 63.9375 81.4375 "/>
<path style=" stroke:none;fill-rule:nonzero;fill:rgb(92.156863%,30.980392%,39.215686%);fill-opacity:1;" d="M 71.53125 95.78125 C 71.53125 100 68.125 103.40625 63.9375 103.40625 C 59.71875 103.40625 56.3125 100 56.3125 95.78125 C 56.3125 91.5625 59.71875 88.15625 63.9375 88.15625 C 68.125 88.15625 71.53125 91.5625 71.53125 95.78125 Z M 71.53125 95.78125 "/>
</g>
</svg>
