<?xml version="1.0" encoding="UTF-8"?>
<svg xmlns="http://www.w3.org/2000/svg" xmlns:xlink="http://www.w3.org/1999/xlink" width="128px" height="128px" viewBox="0 0 128 128" version="1.1">
<g id="surface1">
<path style=" stroke:none;fill-rule:evenodd;fill:rgb(33.72549%,63.921569%,90.980392%);fill-opacity:1;" d="M 99.40625 15.125 C 108.6875 15.125 116.21875 22.59375 116.21875 31.78125 C 116.21875 41 108.6875 48.46875 99.40625 48.46875 C 90.125 48.46875 82.625 41 82.625 31.78125 C 82.625 22.59375 90.125 15.125 99.40625 15.125 Z M 114.625 54.25 C 107.09375 54.25 100.9375 60.3125 100.9375 67.8125 C 100.9375 75.3125 107.09375 81.40625 114.625 81.40625 C 122.1875 81.40625 128.34375 75.3125 128.34375 67.8125 C 128.34375 60.3125 122.1875 54.25 114.625 54.25 Z M 98.75 93.5625 C 93.5 93.5625 89.1875 97.8125 89.1875 103.03125 C 89.1875 108.28125 93.5 112.53125 98.75 112.53125 C 104.03125 112.53125 108.3125 108.28125 108.3125 103.03125 C 108.3125 97.8125 104.03125 93.5625 98.75 93.5625 Z M 62.1875 108.90625 C 56.90625 108.90625 52.625 113.15625 52.625 118.375 C 52.625 123.625 56.90625 127.875 62.1875 127.875 C 67.46875 127.875 71.75 123.625 71.75 118.375 C 71.75 113.15625 67.46875 108.90625 62.1875 108.90625 Z M 24.8125 94.5625 C 19.875 94.5625 15.84375 98.53125 15.84375 103.4375 C 15.84375 108.34375 19.875 112.3125 24.8125 112.3125 C 29.75 112.3125 33.78125 108.34375 33.78125 103.4375 C 33.78125 98.53125 29.75 94.5625 24.8125 94.5625 Z M 9.53125 57.09375 C 4.28125 57.09375 0 61.34375 0 66.5625 C 0 71.78125 4.28125 76.03125 9.53125 76.03125 C 14.8125 76.03125 19.09375 71.78125 19.09375 66.5625 C 19.09375 61.34375 14.8125 57.09375 9.53125 57.09375 Z M 24.8125 17.71875 C 18.15625 17.71875 12.75 23.09375 12.75 29.6875 C 12.75 36.3125 18.15625 41.65625 24.8125 41.65625 C 31.46875 41.65625 36.875 36.3125 36.875 29.6875 C 36.875 23.09375 31.46875 17.71875 24.8125 17.71875 Z M 62.25 0 C 54.21875 0 47.71875 6.46875 47.71875 14.40625 C 47.71875 22.375 54.21875 28.84375 62.25 28.84375 C 70.28125 28.84375 76.78125 22.375 76.78125 14.40625 C 76.78125 6.46875 70.28125 0 62.25 0 Z M 62.25 0 "/>
</g>
</svg>
