<?xml version="1.0" encoding="UTF-8"?>
<svg xmlns="http://www.w3.org/2000/svg" xmlns:xlink="http://www.w3.org/1999/xlink" width="32px" height="32px" viewBox="0 0 32 32" version="1.1">
<g id="surface1">
<path style=" stroke:none;fill-rule:evenodd;fill:white;fill-opacity:1;" d="M 24.851562 3.78125 C 27.171875 3.78125 29.054688 5.648438 29.054688 7.945312 C 29.054688 10.25 27.171875 12.117188 24.851562 12.117188 C 22.53125 12.117188 20.65625 10.25 20.65625 7.945312 C 20.65625 5.648438 22.53125 3.78125 24.851562 3.78125 Z M 28.65625 13.5625 C 26.773438 13.5625 25.234375 15.078125 25.234375 16.953125 C 25.234375 18.828125 26.773438 20.351562 28.65625 20.351562 C 30.546875 20.351562 32.085938 18.828125 32.085938 16.953125 C 32.085938 15.078125 30.546875 13.5625 28.65625 13.5625 Z M 24.6875 23.390625 C 23.375 23.390625 22.296875 24.453125 22.296875 25.757812 C 22.296875 27.070312 23.375 28.132812 24.6875 28.132812 C 26.007812 28.132812 27.078125 27.070312 27.078125 25.757812 C 27.078125 24.453125 26.007812 23.390625 24.6875 23.390625 Z M 15.546875 27.226562 C 14.226562 27.226562 13.15625 28.289062 13.15625 29.59375 C 13.15625 30.90625 14.226562 31.96875 15.546875 31.96875 C 16.867188 31.96875 17.9375 30.90625 17.9375 29.59375 C 17.9375 28.289062 16.867188 27.226562 15.546875 27.226562 Z M 6.203125 23.640625 C 4.96875 23.640625 3.960938 24.632812 3.960938 25.859375 C 3.960938 27.085938 4.96875 28.078125 6.203125 28.078125 C 7.4375 28.078125 8.445312 27.085938 8.445312 25.859375 C 8.445312 24.632812 7.4375 23.640625 6.203125 23.640625 Z M 2.382812 14.273438 C 1.070312 14.273438 0 15.335938 0 16.640625 C 0 17.945312 1.070312 19.007812 2.382812 19.007812 C 3.703125 19.007812 4.773438 17.945312 4.773438 16.640625 C 4.773438 15.335938 3.703125 14.273438 2.382812 14.273438 Z M 6.203125 4.429688 C 4.539062 4.429688 3.1875 5.773438 3.1875 7.421875 C 3.1875 9.078125 4.539062 10.414062 6.203125 10.414062 C 7.867188 10.414062 9.21875 9.078125 9.21875 7.421875 C 9.21875 5.773438 7.867188 4.429688 6.203125 4.429688 Z M 15.5625 0 C 13.554688 0 11.929688 1.617188 11.929688 3.601562 C 11.929688 5.59375 13.554688 7.210938 15.5625 7.210938 C 17.570312 7.210938 19.195312 5.59375 19.195312 3.601562 C 19.195312 1.617188 17.570312 0 15.5625 0 Z M 15.5625 0 "/>
</g>
</svg>
