<svg width="16" height="16" viewBox="0 0 16 16" fill="none" xmlns="http://www.w3.org/2000/svg">
<g id="Group 21">
<path id="Vector" d="M11.2308 1H2.07692C1.48216 1 1 1.48216 1 2.07692V11.2308C1 11.8255 1.48216 12.3077 2.07692 12.3077H11.2308C11.8255 12.3077 12.3077 11.8255 12.3077 11.2308V2.07692C12.3077 1.48216 11.8255 1 11.2308 1Z" stroke="#919191" stroke-linecap="round" stroke-linejoin="round"/>
<path id="Vector_2" d="M4.23096 13.4444V13.8999C4.23096 14.5075 4.72344 14.9999 5.33096 14.9999H13.9233C14.2089 14.9999 14.4828 14.8865 14.6848 14.6845C14.8867 14.4826 15.0002 14.2086 15.0002 13.923V5.33071C15.0002 4.7232 14.5077 4.23071 13.9002 4.23071H12.607" stroke="#919191" stroke-linecap="square" stroke-linejoin="round"/>
</g>
</svg>
