<svg width="18" height="18" viewBox="0 0 18 18" fill="none" xmlns="http://www.w3.org/2000/svg">
<g id="interface-time-reset--time-clock-reset-stopwatch-circle-measure-loading" clip-path="url(#clip0_2267_305)">
<g id="Group">
<path id="Vector" d="M9.00021 -0.00717771H8.35021V1.29282H9.00021V-0.00717771ZM0.643072 8.99996H1.29307L1.29307 8.99925L0.643072 8.99996ZM3.68469 3.02019C3.93256 2.76051 3.92298 2.34906 3.6633 2.1012C3.40362 1.85334 2.99217 1.86292 2.74431 2.1226L3.68469 3.02019ZM9.00021 1.29282C10.5245 1.29282 12.0146 1.74484 13.2821 2.59171L14.0043 1.5108C12.5231 0.521082 10.7817 -0.00717771 9.00021 -0.00717771V1.29282ZM13.2821 2.59171C14.5495 3.43858 15.5374 4.64227 16.1207 6.05057L17.3217 5.55308C16.64 3.90724 15.4855 2.50052 14.0043 1.5108L13.2821 2.59171ZM16.1207 6.05057C16.704 7.45887 16.8566 9.00852 16.5593 10.5036L17.8343 10.7572C18.1818 9.00996 18.0035 7.19892 17.3217 5.55308L16.1207 6.05057ZM16.5593 10.5036C16.2619 11.9986 15.5279 13.3719 14.45 14.4497L15.3692 15.369C16.6289 14.1093 17.4867 12.5044 17.8343 10.7572L16.5593 10.5036ZM14.45 14.4497C13.3721 15.5276 11.9988 16.2616 10.5038 16.559L10.7574 17.834C12.5046 17.4865 14.1096 16.6286 15.3692 15.369L14.45 14.4497ZM10.5038 16.559C9.00876 16.8564 7.45911 16.7038 6.05082 16.1204L5.55333 17.3215C7.19917 18.0032 9.01021 18.1816 10.7574 17.834L10.5038 16.559ZM6.05082 16.1204C4.64252 15.5371 3.43883 14.5493 2.59196 13.2818L1.51105 14.0041C2.50077 15.4853 3.90749 16.6398 5.55333 17.3215L6.05082 16.1204ZM2.59196 13.2818C1.74509 12.0144 1.29307 10.5243 1.29307 8.99996H-0.00692785C-0.00692785 10.7814 0.521332 12.5228 1.51105 14.0041L2.59196 13.2818ZM1.29307 8.99925C1.29061 6.77261 2.1473 4.63088 3.68469 3.02019L2.74431 2.1226C0.975747 3.97547 -0.00976235 6.43925 -0.00692749 9.00068L1.29307 8.99925Z" fill="#919191"/>
<path id="Vector_2" d="M0.643066 3.21427L3.21449 2.57141L3.85735 5.14284" stroke="#919191" stroke-width="1.3" stroke-linecap="round" stroke-linejoin="round"/>
<path id="Vector_3" d="M9 4.5V9.64286L12.3429 11.3143" stroke="#919191" stroke-width="1.3" stroke-linecap="square" stroke-linejoin="round"/>
</g>
</g>
<defs>
<clipPath id="clip0_2267_305">
<rect width="18" height="18" fill="white"/>
</clipPath>
</defs>
</svg>
