<svg width="62" height="62" viewBox="0 0 62 62" fill="none" xmlns="http://www.w3.org/2000/svg">
<g id="Vector">
<path d="M0 21.8746C0 14.3819 0 10.6356 1.41177 7.75385C2.76349 4.99465 4.99465 2.76349 7.75385 1.41177C10.6356 0 14.3819 0 21.8746 0H40.1254C47.6181 0 51.3644 0 54.2461 1.41177C57.0053 2.76349 59.2365 4.99465 60.5882 7.75385C62 10.6356 62 14.3819 62 21.8746V40.1254C62 47.6181 62 51.3644 60.5882 54.2461C59.2365 57.0053 57.0053 59.2365 54.2461 60.5882C51.3644 62 47.6181 62 40.1254 62H21.8746C14.3819 62 10.6356 62 7.75385 60.5882C4.99465 59.2365 2.76349 57.0053 1.41177 54.2461C0 51.3644 0 47.6181 0 40.1254V21.8746Z" fill="#DC2626"/>
<path d="M0 21.8746C0 14.3819 0 10.6356 1.41177 7.75385C2.76349 4.99465 4.99465 2.76349 7.75385 1.41177C10.6356 0 14.3819 0 21.8746 0H40.1254C47.6181 0 51.3644 0 54.2461 1.41177C57.0053 2.76349 59.2365 4.99465 60.5882 7.75385C62 10.6356 62 14.3819 62 21.8746V40.1254C62 47.6181 62 51.3644 60.5882 54.2461C59.2365 57.0053 57.0053 59.2365 54.2461 60.5882C51.3644 62 47.6181 62 40.1254 62H21.8746C14.3819 62 10.6356 62 7.75385 60.5882C4.99465 59.2365 2.76349 57.0053 1.41177 54.2461C0 51.3644 0 47.6181 0 40.1254V21.8746Z" fill="url(#paint0_linear_1951_84)"/>
<path d="M30.8902 12.8066H22.5372V6.91958L7.22341 21.5355H30.8902C38.9405 21.5355 45.5079 27.8285 45.5079 35.5425V36.7315H54.6175V35.5425C54.6175 23.0145 43.9947 12.8066 30.8902 12.8066Z" fill="#F3F3F3"/>
<path d="M54.7767 40.4691H31.1099C23.0596 40.4691 16.4922 34.1761 16.4922 26.4621V25.2731H7.38264V26.4621C7.38264 38.9901 18.0357 49.1981 31.1099 49.1981H39.4629V55.085L54.7767 40.4691Z" fill="#F3F3F3"/>
<path d="M36.9464 30.6979C36.9464 33.981 34.2849 36.6424 31.0018 36.6424C27.7187 36.6424 25.0573 33.981 25.0573 30.6979C25.0573 27.4148 27.7187 24.7533 31.0018 24.7533C34.2849 24.7533 36.9464 27.4148 36.9464 30.6979Z" fill="#F3F3F3"/>
</g>
<defs>
<linearGradient id="paint0_linear_1951_84" x1="31" y1="0" x2="31" y2="62" gradientUnits="userSpaceOnUse">
<stop stop-opacity="0"/>
<stop offset="1" stop-opacity="0.2"/>
</linearGradient>
</defs>
</svg>
