<svg width="15" height="15" viewBox="0 0 15 15" fill="none" xmlns="http://www.w3.org/2000/svg">
<path id="Union" fill-rule="evenodd" clip-rule="evenodd" d="M1.3 6.34422C1.3 3.65111 3.4832 1.46791 6.17632 1.46791C8.86943 1.46791 11.0526 3.65111 11.0526 6.34422C11.0526 9.03734 8.86943 11.2205 6.17632 11.2205C3.4832 11.2205 1.3 9.03734 1.3 6.34422ZM6.17632 0.167907C2.76523 0.167907 4.83488e-07 2.93314 1.0799e-06 6.34422C1.67631e-06 9.75531 2.76523 12.5205 6.17632 12.5205C7.64791 12.5205 8.9993 12.0059 10.0603 11.1467L13.4539 14.5404L13.9136 15L14.8328 14.0807L14.3732 13.6211L10.9795 10.2274C11.8382 9.16653 12.3526 7.81545 12.3526 6.34422C12.3526 2.93314 9.5874 0.167906 6.17632 0.167907Z" fill="#ABABAB"/>
</svg>
