<?xml version="1.0" encoding="utf-8"?>
<!-- Generator: Adobe Illustrator 24.0.1, SVG Export Plug-In . SVG Version: 6.00 Build 0)  -->
<svg version="1.1" id="Layer_1" xmlns="http://www.w3.org/2000/svg" xmlns:xlink="http://www.w3.org/1999/xlink" x="0px" y="0px"
	 viewBox="0 0 400 400" style="enable-background:new 0 0 400 400;" xml:space="preserve">
<style type="text/css">
	.st0{fill:#FFFFFF;}
</style>
<path class="st0" d="M15.4,122v-18.6l84.3-34.6l12.1,5.2v42.5c0,0,39.5-48.4,91.2-48.4s70.6,44.5,70.6,64.4
	c7.2-14.4,20.9-35.6,25.2-40.5C308.9,80.1,322.5,69,347.4,69c25.5,0,41.8,15.4,41.8,39.5c0,23.7-19.6,33.7-36.3,33.7
	c-17.3,0-29.1-10.5-41.2-22.9c-4.4,4.1-21.2,14.7-34,49c0,32.4,0,134.2,0,134.2l33.7,7.4v22.6H175.8V310l33.4-7.4v-162
	c0,0-2.3-25.8-31-25.8s-66.3,25.8-66.3,25.8v162l33.7,7.4v22.6h-130V310l33.9-7.4V126.9L15.4,122z"/>
</svg>
