<svg width="18" height="16" viewBox="0 0 18 16" fill="none" xmlns="http://www.w3.org/2000/svg">
<g id="Group 19">
<g id="Group">
<path id="Vector" d="M10.0959 1.40295C9.99256 1.22143 9.83557 1.06909 9.64221 0.962713C9.44885 0.856336 9.22662 0.800049 9 0.800049C8.77338 0.800049 8.55115 0.856336 8.35779 0.962713C8.16443 1.06909 8.00744 1.22143 7.90411 1.40295L1.13172 13.5932C1.03727 13.7619 0.992294 13.9495 1.00108 14.1382C1.00986 14.327 1.07211 14.5106 1.18191 14.6716C1.29172 14.8326 1.44543 14.9656 1.62844 15.0581C1.81146 15.1506 2.01772 15.1995 2.22762 15.2H15.7724C15.9823 15.1995 16.1885 15.1506 16.3716 15.0581C16.5546 14.9656 16.7083 14.8326 16.8181 14.6716C16.9279 14.5106 16.9901 14.327 16.9989 14.1382C17.0077 13.9495 16.9627 13.7619 16.8683 13.5932L10.0959 1.40295Z" stroke="#F97316" stroke-linecap="round" stroke-linejoin="round"/>
</g>
<g id="Union">
<mask id="path-2-inside-1_2240_512" fill="white">
<path fill-rule="evenodd" clip-rule="evenodd" d="M9.80039 6.4001C9.80039 5.95827 9.44222 5.6001 9.00039 5.6001C8.55856 5.6001 8.20039 5.95827 8.20039 6.4001L8.60039 10.0001C8.60039 10.0001 8.55856 10.4001 9.00039 10.4001C9.44222 10.4001 9.40039 10.0001 9.40039 10.0001L9.80039 6.4001ZM9.0002 12.8C9.44202 12.8 9.8002 12.4419 9.8002 12C9.8002 11.5582 9.44202 11.2 9.0002 11.2C8.55837 11.2 8.2002 11.5582 8.2002 12C8.2002 12.4419 8.55837 12.8 9.0002 12.8Z"/>
</mask>
<path fill-rule="evenodd" clip-rule="evenodd" d="M9.80039 6.4001C9.80039 5.95827 9.44222 5.6001 9.00039 5.6001C8.55856 5.6001 8.20039 5.95827 8.20039 6.4001L8.60039 10.0001C8.60039 10.0001 8.55856 10.4001 9.00039 10.4001C9.44222 10.4001 9.40039 10.0001 9.40039 10.0001L9.80039 6.4001ZM9.0002 12.8C9.44202 12.8 9.8002 12.4419 9.8002 12C9.8002 11.5582 9.44202 11.2 9.0002 11.2C8.55837 11.2 8.2002 11.5582 8.2002 12C8.2002 12.4419 8.55837 12.8 9.0002 12.8Z" fill="#F97316"/>
<path d="M9.80039 6.4001L10.7943 6.51053L10.8004 6.45548V6.4001H9.80039ZM8.20039 6.4001H7.20039V6.45548L7.20651 6.51053L8.20039 6.4001ZM8.60039 10.0001L9.59497 10.1041L9.60618 9.99685L9.59427 9.88967L8.60039 10.0001ZM9.40039 10.0001L8.40651 9.88967L8.3946 9.99685L8.40581 10.1041L9.40039 10.0001ZM9.00039 6.6001C8.88993 6.6001 8.80039 6.51055 8.80039 6.4001H10.8004C10.8004 5.40599 9.9945 4.6001 9.00039 4.6001V6.6001ZM9.20039 6.4001C9.20039 6.51055 9.11085 6.6001 9.00039 6.6001V4.6001C8.00628 4.6001 7.20039 5.40599 7.20039 6.4001H9.20039ZM9.59427 9.88967L9.19427 6.28967L7.20651 6.51053L7.60651 10.1105L9.59427 9.88967ZM9.00039 9.4001C9.04383 9.4001 9.16044 9.41151 9.29306 9.49694C9.42621 9.58272 9.5056 9.6981 9.54741 9.79147C9.58548 9.87651 9.59468 9.9465 9.59761 9.98332C9.5993 10.0046 9.5996 10.0244 9.59913 10.0429C9.59888 10.0524 9.59842 10.0622 9.59774 10.0722C9.5974 10.0772 9.597 10.0824 9.59654 10.0877C9.59631 10.0903 9.59607 10.093 9.5958 10.0958C9.59567 10.0971 9.59554 10.0985 9.5954 10.0999C9.59533 10.1006 9.59526 10.1013 9.59519 10.102C9.59515 10.1023 9.5951 10.1029 9.59508 10.103C9.59502 10.1036 9.59497 10.1041 8.60039 10.0001C7.60581 9.8961 7.60576 9.89663 7.6057 9.89716C7.60568 9.89734 7.60563 9.89788 7.60559 9.89824C7.60552 9.89897 7.60544 9.89971 7.60537 9.90045C7.60522 9.90194 7.60507 9.90346 7.60492 9.90502C7.60462 9.90814 7.60432 9.91141 7.60403 9.91482C7.60344 9.92163 7.60286 9.92903 7.60232 9.93699C7.60124 9.95288 7.60031 9.97119 7.59979 9.99162C7.59875 10.0321 7.59923 10.0831 7.60391 10.1419C7.6128 10.2537 7.63916 10.4237 7.722 10.6087C7.80858 10.8021 7.96036 11.0175 8.20993 11.1783C8.45897 11.3387 8.73604 11.4001 9.00039 11.4001V9.4001ZM9.40039 10.0001C8.40581 10.1041 8.40576 10.1036 8.4057 10.103C8.40569 10.1029 8.40563 10.1023 8.40559 10.102C8.40552 10.1013 8.40545 10.1006 8.40538 10.0999C8.40524 10.0985 8.40511 10.0971 8.40498 10.0958C8.40472 10.093 8.40447 10.0903 8.40424 10.0877C8.40378 10.0824 8.40338 10.0772 8.40304 10.0722C8.40236 10.0622 8.4019 10.0524 8.40165 10.0429C8.40118 10.0244 8.40148 10.0046 8.40317 9.98332C8.4061 9.9465 8.4153 9.87651 8.45338 9.79147C8.49518 9.6981 8.57457 9.58272 8.70772 9.49694C8.84034 9.41151 8.95695 9.4001 9.00039 9.4001V11.4001C9.26474 11.4001 9.54181 11.3387 9.79085 11.1783C10.0404 11.0175 10.1922 10.8021 10.2788 10.6087C10.3616 10.4237 10.388 10.2537 10.3969 10.1419C10.4015 10.0831 10.402 10.0321 10.401 9.99162C10.4005 9.97119 10.3995 9.95288 10.3985 9.93699C10.3979 9.92903 10.3973 9.92163 10.3968 9.91482C10.3965 9.91141 10.3962 9.90814 10.3959 9.90502C10.3957 9.90346 10.3956 9.90194 10.3954 9.90045C10.3953 9.89971 10.3953 9.89897 10.3952 9.89825C10.3952 9.89788 10.3951 9.89734 10.3951 9.89716C10.395 9.89663 10.395 9.8961 9.40039 10.0001ZM8.80651 6.28967L8.40651 9.88967L10.3943 10.1105L10.7943 6.51053L8.80651 6.28967ZM8.8002 12C8.8002 11.8896 8.88974 11.8 9.0002 11.8V13.8C9.99431 13.8 10.8002 12.9942 10.8002 12H8.8002ZM9.0002 12.2C8.88974 12.2 8.8002 12.1105 8.8002 12H10.8002C10.8002 11.0059 9.99431 10.2 9.0002 10.2V12.2ZM9.2002 12C9.2002 12.1105 9.11065 12.2 9.0002 12.2V10.2C8.00608 10.2 7.2002 11.0059 7.2002 12H9.2002ZM9.0002 11.8C9.11065 11.8 9.2002 11.8896 9.2002 12H7.2002C7.2002 12.9942 8.00608 13.8 9.0002 13.8V11.8Z" fill="#F97316" mask="url(#path-2-inside-1_2240_512)"/>
</g>
</g>
</svg>
