<svg width="24" height="24" viewBox="0 0 24 24" fill="none" xmlns="http://www.w3.org/2000/svg">
<g id="interface-folder-remove--remove-minus-folder-subtract-delete" clip-path="url(#clip0_1660_9)">
<g id="Group">
<path id="Vector" d="M0.849976 19.975V3.82499C0.849976 3.37412 1.02908 2.94172 1.34789 2.62291C1.66671 2.3041 2.09911 2.12499 2.54998 2.12499H8.82298C9.21131 2.11367 9.59181 2.23572 9.90113 2.47079C10.2104 2.70587 10.4299 3.0398 10.523 3.41699L11.05 5.52499H21.25C21.7008 5.52499 22.1332 5.7041 22.4521 6.02291C22.7709 6.34172 22.95 6.77412 22.95 7.22499V19.975C22.95 20.4259 22.7709 20.8583 22.4521 21.1771C22.1332 21.4959 21.7008 21.675 21.25 21.675H2.54998C2.09911 21.675 1.66671 21.4959 1.34789 21.1771C1.02908 20.8583 0.849976 20.4259 0.849976 19.975Z" stroke="#F3F3F3" stroke-width="1.3" stroke-linecap="round" stroke-linejoin="round"/>
</g>
</g>
<defs>
<clipPath id="clip0_1660_9">
<rect width="23.8" height="23.8" fill="white"/>
</clipPath>
</defs>
</svg>
